<svg xmlns="http://www.w3.org/2000/svg" xmlns:xlink="http://www.w3.org/1999/xlink" width="1080" zoomAndPan="magnify" viewBox="0 0 810 809.999993" height="1080" preserveAspectRatio="xMidYMid meet" version="1.0"><defs><clipPath id="650cf412b6"><path d="M 34 1 L 778.664062 1 L 778.664062 810 L 34 810 Z M 34 1 " clip-rule="nonzero"/></clipPath></defs><g clip-path="url(#650cf412b6)"><path fill="#fe5d03" d="M 437.820312 3.175781 C 436.476562 4.21875 408.429688 51.808594 375.3125 108.796875 C 310.566406 220.535156 308.027344 224.863281 296.242188 237.691406 L 288.636719 246.046875 L 199.125 246.046875 C 149.894531 245.898438 109.164062 246.195312 108.867188 246.644531 C 108.417969 247.09375 110.804688 252.164062 114.089844 257.832031 C 117.519531 263.652344 119.757812 268.574219 119.160156 269.023438 C 118.5625 269.320312 110.957031 270.066406 102.152344 270.664062 C 83.355469 271.855469 83.207031 272.15625 92.160156 284.539062 L 98.125 293.039062 L 87.234375 294.980469 C 72.167969 297.515625 67.691406 298.859375 67.09375 300.648438 C 66.796875 301.542969 69.183594 305.574219 72.613281 309.601562 C 75.898438 313.480469 77.984375 317.207031 77.390625 317.804688 C 76.792969 318.253906 71.71875 319.894531 65.902344 321.386719 C 50.535156 325.265625 49.640625 326.609375 57.695312 334.8125 C 61.277344 338.394531 63.8125 341.824219 63.367188 342.421875 C 62.769531 342.867188 58.144531 344.808594 52.921875 346.746094 C 39.792969 351.523438 38.898438 353.757812 47.253906 361.21875 C 50.984375 364.5 53.371094 367.484375 52.476562 367.78125 C 51.730469 368.230469 47.699219 370.320312 43.523438 372.558594 C 34.273438 377.628906 33.976562 380.761719 42.179688 387.027344 L 48.296875 391.652344 L 41.433594 396.128906 C 31.589844 402.394531 31.589844 405.972656 41.136719 411.792969 C 45.3125 414.476562 48.746094 416.714844 48.746094 416.863281 C 48.746094 417.015625 46.058594 418.953125 42.925781 421.191406 C 32.933594 428.203125 34.273438 434.46875 46.359375 439.09375 C 50.238281 440.585938 53.222656 442.226562 53.222656 442.824219 C 53.222656 443.417969 50.832031 445.957031 48 448.492188 C 38.898438 456.546875 41.285156 462.515625 55.457031 466.839844 C 58.742188 467.886719 61.875 469.078125 62.621094 469.675781 C 63.214844 470.273438 61.277344 472.957031 58.441406 475.792969 C 49.34375 484.742188 51.878906 490.5625 66.648438 494.589844 C 72.019531 495.933594 76.644531 497.425781 76.941406 497.574219 C 77.238281 497.871094 75.300781 500.558594 72.765625 503.691406 C 67.542969 509.957031 66.796875 515.921875 70.824219 519.503906 C 72.167969 520.699219 78.136719 522.636719 83.804688 523.679688 C 89.621094 524.578125 94.546875 525.621094 94.84375 525.917969 C 95.140625 526.21875 93.648438 528.753906 91.5625 531.4375 C 85.890625 538.898438 85.296875 543.074219 89.023438 547.699219 C 91.710938 551.132812 93.5 551.878906 103.945312 552.773438 C 110.507812 553.21875 115.878906 554.265625 115.878906 554.859375 C 115.878906 555.457031 114.238281 559.039062 112.148438 562.46875 C 107.671875 570.527344 107.523438 572.761719 111.550781 577.835938 L 114.535156 581.714844 L 300.121094 581.714844 L 306.984375 592.605469 C 310.714844 598.421875 340.550781 649.890625 373.371094 706.582031 C 406.042969 763.421875 433.34375 809.96875 433.941406 809.96875 C 434.390625 809.96875 437.371094 805.640625 440.355469 800.269531 C 443.339844 794.898438 445.875 790.574219 446.175781 790.574219 C 446.472656 790.574219 449.160156 794.304688 452.140625 798.777344 C 455.125 803.253906 458.40625 806.984375 459.601562 806.984375 C 460.644531 806.984375 463.777344 802.0625 466.316406 796.09375 L 471.238281 785.351562 L 478.398438 793.558594 C 487.796875 804.148438 487.648438 804.296875 497.195312 777.296875 C 497.644531 775.804688 500.179688 777.445312 505.699219 782.816406 C 515.398438 792.363281 517.039062 791.617188 520.917969 776.402344 C 522.410156 770.582031 524.050781 765.210938 524.496094 764.167969 C 525.09375 762.972656 528.078125 764.617188 533.449219 769.089844 C 537.773438 772.671875 541.800781 775.65625 542.546875 775.65625 C 545.234375 775.65625 547.171875 770.882812 549.558594 757.902344 L 552.246094 744.324219 L 560.449219 750.292969 C 573.578125 759.691406 576.113281 758.347656 577.605469 741.34375 C 579.246094 721.5 578.351562 722.394531 590.289062 728.960938 C 604.757812 736.867188 605.804688 735.972656 606.398438 716.128906 C 606.546875 707.925781 606.996094 701.0625 607.292969 701.0625 C 607.59375 701.0625 612.21875 703.152344 617.589844 705.539062 C 635.042969 713.445312 637.429688 711.65625 635.9375 692.109375 C 635.339844 684.652344 635.339844 678.683594 635.9375 678.683594 C 636.683594 678.683594 642.351562 680.476562 648.769531 682.710938 L 660.253906 686.890625 L 663.6875 683.609375 C 666.820312 680.324219 666.820312 680.175781 664.730469 667.496094 C 663.539062 660.484375 662.941406 654.816406 663.6875 654.816406 C 664.285156 654.816406 669.953125 656.15625 676.070312 657.949219 C 694.269531 662.871094 698.148438 659.289062 693.226562 641.984375 C 691.585938 636.464844 690.539062 631.691406 690.839844 631.394531 C 691.136719 631.09375 696.804688 631.691406 703.222656 632.886719 C 710.082031 634.078125 716.5 634.375 718.4375 633.78125 C 723.808594 631.691406 724.851562 626.023438 721.570312 617.070312 C 719.929688 612.894531 718.585938 608.71875 718.585938 607.972656 C 718.585938 607.226562 724.40625 607.074219 731.714844 607.671875 C 743.648438 608.71875 744.992188 608.417969 748.125 605.582031 C 752.152344 601.855469 752.300781 597.828125 748.425781 589.324219 C 746.78125 585.742188 745.441406 582.609375 745.441406 582.3125 C 745.441406 582.011719 751.40625 581.714844 758.71875 581.714844 C 771.398438 581.714844 772.292969 581.566406 775.128906 577.835938 C 776.917969 575.597656 778.261719 572.761719 778.261719 571.421875 C 778.261719 570.078125 755.4375 529.5 727.539062 481.164062 C 699.640625 432.828125 676.816406 392.695312 676.816406 391.949219 C 676.816406 391.203125 695.3125 358.683594 717.839844 319.597656 C 740.515625 280.507812 758.417969 247.988281 757.824219 247.390625 C 757.078125 246.644531 749.019531 245.898438 739.769531 245.75 L 723.0625 245.300781 L 729.328125 232.171875 C 733.058594 224.265625 734.996094 218.597656 734.101562 217.851562 C 733.355469 217.105469 726.34375 217.105469 717.246094 218 C 708.742188 218.746094 701.578125 219.046875 701.28125 218.746094 C 700.984375 218.449219 702.921875 211.734375 705.757812 203.976562 C 709.1875 194.578125 710.382812 189.207031 709.488281 188.3125 C 708.441406 187.269531 703.070312 187.714844 693.523438 189.355469 C 685.617188 190.847656 678.753906 191.746094 678.457031 191.445312 C 678.007812 191 683.230469 168.621094 685.019531 163.847656 C 685.320312 162.652344 685.167969 160.714844 684.421875 159.519531 C 683.230469 157.730469 681.140625 157.878906 669.355469 160.863281 C 661.898438 162.800781 655.628906 164.144531 655.183594 163.847656 C 654.886719 163.398438 655.78125 156.238281 657.121094 147.882812 C 660.253906 127.894531 659.957031 127.59375 643.695312 133.113281 C 637.132812 135.351562 631.460938 136.992188 631.164062 136.695312 C 630.867188 136.398438 631.164062 129.683594 632.058594 121.777344 C 634.296875 100.59375 632.953125 99.101562 617.738281 105.8125 C 612.367188 108.351562 607.59375 110.289062 607.292969 110.289062 C 606.996094 110.289062 606.699219 103.425781 606.699219 94.921875 C 606.699219 74.1875 604.3125 72.097656 590.585938 80.304688 L 583.125 84.628906 L 582.230469 79.257812 C 581.785156 76.125 581.335938 70.902344 581.335938 67.472656 C 581.335938 64.042969 580.738281 59.566406 579.84375 57.476562 C 577.90625 52.40625 571.640625 52.257812 564.925781 57.328125 C 562.089844 59.417969 559.40625 61.058594 558.808594 61.058594 C 558.210938 61.058594 556.871094 56.136719 555.976562 50.167969 C 553.140625 33.609375 548.066406 30.324219 538.074219 38.828125 C 535.238281 41.214844 532.703125 42.707031 532.554688 42.113281 C 525.988281 17.644531 522.558594 14.660156 512.113281 23.761719 L 507.042969 28.386719 L 504.507812 20.777344 C 500.476562 8.542969 493.167969 5.5625 486.007812 13.320312 L 481.828125 17.945312 L 479.144531 11.828125 C 474.519531 1.683594 467.359375 0.0429688 460.347656 7.5 C 457.960938 10.035156 456.019531 11.527344 456.019531 10.78125 C 456.019531 9.886719 454.378906 7.5 452.292969 5.261719 C 448.414062 1.085938 441.847656 0.0429688 437.820312 3.175781 Z M 517.632812 51.511719 C 518.378906 55.984375 516.441406 54.492188 514.949219 49.273438 C 514.351562 47.035156 514.5 46.140625 515.398438 46.734375 C 516.140625 47.183594 517.1875 49.273438 517.632812 51.511719 Z M 542.847656 64.9375 C 543.292969 68.070312 543.292969 71.351562 542.546875 71.949219 C 540.90625 73.738281 539.863281 71.5 538.667969 64.042969 C 537.773438 58.96875 538.074219 57.777344 539.714844 58.371094 C 540.90625 58.820312 542.25 61.65625 542.847656 64.9375 Z M 458.257812 77.171875 L 451.097656 84.183594 L 457.511719 76.273438 C 460.945312 71.949219 464.226562 68.816406 464.671875 69.261719 C 465.121094 69.710938 462.285156 73.292969 458.257812 77.171875 Z M 568.507812 82.988281 C 569.402344 91.195312 569.253906 92.386719 566.566406 93.730469 C 564.03125 95.222656 563.582031 94.625 562.242188 86.71875 C 560.75 78.960938 560.898438 78.066406 563.734375 75.527344 C 565.375 74.035156 567.015625 73.140625 567.164062 73.292969 C 567.3125 73.589844 567.910156 77.914062 568.507812 82.988281 Z M 475.863281 88.359375 C 476.308594 89.402344 472.730469 93.582031 467.359375 97.90625 C 438.117188 121.925781 438.117188 121.925781 456.019531 103.875 C 465.417969 94.328125 473.625 86.417969 474.074219 86.417969 C 474.667969 86.417969 475.414062 87.316406 475.863281 88.359375 Z M 548.21875 96.863281 C 548.21875 98.207031 547.769531 97.90625 547.023438 96.117188 C 546.277344 94.476562 545.832031 91.789062 545.832031 90.148438 C 545.832031 87.761719 546.128906 87.910156 547.023438 90.894531 C 547.621094 92.984375 548.21875 95.667969 548.21875 96.863281 Z M 594.761719 105.066406 C 594.761719 115.808594 594.613281 116.257812 590.4375 118.34375 L 586.257812 120.582031 L 585.214844 113.71875 C 583.574219 101.1875 584.023438 98.652344 588.496094 96.265625 C 590.734375 95.070312 592.972656 94.027344 593.71875 93.878906 C 594.316406 93.878906 594.761719 98.949219 594.761719 105.066406 Z M 486.453125 106.707031 C 486.902344 108.050781 487.351562 109.542969 487.351562 110.140625 C 487.351562 110.886719 475.414062 119.6875 460.945312 129.832031 C 446.324219 139.828125 432.003906 149.824219 429.167969 151.910156 C 426.332031 154 424.691406 154.894531 425.4375 153.851562 C 427.972656 151.015625 483.621094 104.472656 484.515625 104.320312 C 485.113281 104.320312 486.007812 105.367188 486.453125 106.707031 Z M 571.492188 116.554688 C 571.9375 121.628906 571.789062 126.402344 571.042969 127.148438 C 569.550781 128.640625 565.820312 111.035156 567.164062 108.796875 C 569.253906 105.515625 570.445312 107.753906 571.492188 116.554688 Z M 620.722656 125.507812 C 619.230469 141.320312 618.78125 142.8125 615.050781 143.707031 C 613.113281 144.152344 610.425781 145.050781 609.085938 145.496094 C 606.996094 146.242188 606.699219 144.898438 606.699219 135.054688 L 606.699219 123.714844 L 612.367188 120.882812 C 620.871094 116.257812 621.617188 116.703125 620.722656 125.507812 Z M 498.539062 127.59375 C 499.882812 129.683594 500.777344 131.621094 500.476562 131.921875 C 500.03125 132.367188 412.90625 182.496094 409.027344 184.582031 C 407.984375 185.03125 407.984375 184.734375 409.027344 183.6875 C 411.117188 181.601562 493.914062 123.863281 494.957031 123.714844 C 495.554688 123.714844 497.046875 125.507812 498.539062 127.59375 Z M 594.761719 140.125 C 594.761719 148.183594 594.167969 150.867188 592.523438 151.613281 C 589.242188 152.808594 589.09375 152.359375 587.902344 142.363281 C 587.003906 134.90625 587.304688 133.414062 589.542969 131.773438 C 594.167969 128.339844 594.761719 129.234375 594.761719 140.125 Z M 573.429688 145.644531 C 572.980469 147.136719 572.683594 146.242188 572.683594 143.855469 C 572.683594 141.320312 572.980469 140.273438 573.429688 141.171875 C 573.726562 142.214844 573.726562 144.304688 573.429688 145.644531 Z M 646.382812 154.148438 C 645.039062 160.414062 643.695312 166.085938 643.398438 166.832031 C 642.503906 168.171875 629.074219 171.902344 628.179688 171.007812 C 627.882812 170.710938 628.179688 165.488281 628.777344 159.371094 L 629.820312 148.332031 L 638.773438 145.199219 C 643.695312 143.410156 647.875 142.066406 648.171875 142.363281 C 648.320312 142.511719 647.574219 147.734375 646.382812 154.148438 Z M 510.324219 148.332031 C 511.964844 151.164062 512.859375 153.851562 512.414062 154.296875 C 511.070312 155.640625 389.933594 211.734375 389.335938 211.289062 C 388.886719 210.839844 505.253906 143.257812 506.742188 143.257812 C 507.191406 143.109375 508.832031 145.496094 510.324219 148.332031 Z M 618.035156 155.941406 C 617.589844 157.28125 617.140625 161.460938 617.140625 165.1875 C 617.140625 173.542969 616.246094 175.183594 610.875 176.527344 L 606.699219 177.421875 L 606.699219 167.128906 C 606.699219 157.132812 606.847656 156.6875 610.875 155.34375 C 616.992188 153.105469 619.082031 153.253906 618.035156 155.941406 Z M 594.015625 180.257812 C 593.269531 182.195312 592.972656 182.34375 591.78125 180.40625 C 589.542969 176.976562 589.988281 162.800781 592.226562 162.054688 C 594.167969 161.460938 595.660156 175.929688 594.015625 180.257812 Z M 522.855469 169.8125 L 526.136719 175.632812 L 517.484375 178.765625 C 479.742188 192.640625 389.632812 224.863281 389.335938 224.714844 C 389.035156 224.265625 517.1875 164.441406 518.828125 164.144531 C 519.277344 163.996094 521.066406 166.53125 522.855469 169.8125 Z M 675.023438 170.261719 C 674.578125 171.304688 673.085938 176.824219 671.59375 182.34375 C 669.503906 189.953125 668.011719 192.9375 665.773438 193.832031 C 662.34375 195.027344 648.46875 197.265625 648.46875 196.519531 C 648.46875 194.726562 652.796875 174.140625 653.09375 173.84375 C 654.289062 173.097656 670.25 168.769531 672.9375 168.621094 C 674.429688 168.472656 675.324219 169.21875 675.023438 170.261719 Z M 641.90625 179.660156 C 641.457031 180.855469 640.710938 185.179688 640.117188 189.207031 C 638.921875 198.605469 638.472656 199.203125 631.164062 200.246094 L 625.046875 201.292969 L 625.644531 192.640625 C 626.539062 181.152344 626.6875 180.703125 632.359375 179.0625 C 639.964844 176.976562 642.949219 177.125 641.90625 179.660156 Z M 614.457031 194.578125 C 613.558594 202.335938 612.964844 203.53125 609.980469 203.976562 C 606.699219 204.425781 606.546875 204.125 606.996094 195.175781 C 607.445312 186.523438 607.742188 185.628906 611.171875 184.882812 C 613.261719 184.285156 615.050781 184.285156 615.203125 184.734375 C 615.5 185.179688 615.203125 189.65625 614.457031 194.578125 Z M 534.34375 190.101562 C 535.984375 192.9375 536.878906 195.472656 536.582031 195.773438 C 535.386719 196.816406 405 231.277344 404.402344 230.679688 C 403.65625 229.9375 525.988281 185.328125 529.269531 185.03125 C 530.613281 185.03125 532.851562 187.269531 534.34375 190.101562 Z M 594.613281 197.859375 C 594.464844 206.363281 594.464844 206.511719 593.121094 200.546875 C 591.480469 192.339844 591.480469 189.355469 593.269531 189.355469 C 594.167969 189.355469 594.613281 193.085938 594.613281 197.859375 Z M 697.851562 206.511719 C 695.613281 212.628906 693.226562 218.300781 692.332031 219.046875 C 691.585938 219.792969 686.066406 220.6875 680.097656 221.28125 L 669.355469 222.179688 L 670.25 218.148438 C 670.847656 215.761719 672.339844 210.691406 673.683594 206.511719 L 676.070312 199.203125 L 685.019531 197.414062 C 689.941406 196.519531 695.761719 195.621094 698 195.472656 L 702.027344 195.324219 Z M 665.773438 203.828125 C 665.476562 205.320312 663.984375 210.390625 662.792969 215.015625 L 660.253906 223.667969 L 652.199219 223.667969 C 647.722656 223.667969 643.996094 223.074219 643.996094 222.476562 C 643.996094 221.730469 644.738281 217.402344 645.636719 212.78125 C 647.277344 204.574219 647.574219 204.277344 653.542969 202.933594 C 663.6875 200.695312 666.671875 200.992188 665.773438 203.828125 Z M 547.917969 214.421875 C 547.023438 215.167969 419.769531 237.246094 418.425781 236.796875 C 417.828125 236.5 445.28125 228.890625 479.441406 219.792969 L 541.800781 203.230469 L 545.085938 208.453125 C 546.875 211.4375 548.21875 214.121094 547.917969 214.421875 Z M 635.9375 212.78125 C 634.148438 224.566406 633.851562 225.160156 628.179688 225.160156 C 623.40625 225.160156 623.109375 224.863281 623.257812 220.238281 C 623.554688 209.347656 625.347656 207.410156 635.640625 205.917969 C 636.238281 205.917969 636.386719 208.902344 635.9375 212.78125 Z M 612.664062 216.0625 C 612.664062 223.371094 611.472656 226.652344 608.785156 226.652344 C 607.292969 226.652344 606.699219 224.566406 606.699219 219.492188 C 606.699219 211.882812 607.445312 210.242188 610.726562 210.242188 C 612.070312 210.242188 612.664062 212.183594 612.664062 216.0625 Z M 554.929688 225.460938 C 556.421875 227.996094 557.019531 230.53125 556.421875 231.128906 C 555.378906 232.023438 441.101562 242.019531 437.371094 241.421875 C 436.03125 241.273438 546.578125 221.28125 550.753906 220.835938 C 551.648438 220.835938 553.4375 222.773438 554.929688 225.460938 Z M 727.539062 222.773438 C 727.539062 223.222656 725.300781 228.59375 722.464844 234.710938 L 717.246094 246.046875 L 690.390625 246.046875 L 694.121094 235.902344 C 696.210938 230.382812 698.296875 225.609375 698.597656 225.3125 C 699.789062 223.96875 727.539062 221.730469 727.539062 222.773438 Z M 690.242188 226.207031 C 690.242188 226.953125 688.75 231.578125 686.960938 236.648438 L 683.527344 246.046875 L 663.089844 246.046875 L 664.132812 241.125 C 664.730469 238.589844 666.074219 234.261719 667.117188 231.578125 C 668.90625 227.25 669.804688 226.800781 677.113281 226.207031 C 681.441406 225.90625 686.214844 225.609375 687.707031 225.460938 C 689.046875 225.3125 690.242188 225.609375 690.242188 226.207031 Z M 658.914062 229.339844 C 658.914062 230.085938 657.867188 234.113281 656.675781 238.289062 L 654.289062 246.046875 L 646.828125 246.046875 C 640.414062 246.046875 639.371094 245.75 640.117188 243.363281 C 640.5625 242.019531 641.308594 238.289062 641.757812 235.304688 C 642.652344 230.832031 643.546875 229.636719 646.828125 229.191406 C 654.140625 228.144531 658.914062 228.144531 658.914062 229.339844 Z M 632.058594 232.917969 C 632.058594 233.964844 631.613281 237.394531 631.164062 240.378906 C 630.269531 245.449219 629.671875 246.046875 625.941406 246.046875 C 621.914062 246.046875 621.617188 245.75 621.617188 239.632812 C 621.617188 236.050781 622.0625 232.621094 622.660156 232.171875 C 624.449219 230.382812 632.058594 231.128906 632.058594 232.917969 Z M 611.171875 235.902344 C 611.171875 240.976562 609.53125 246.046875 608.039062 246.046875 C 607.292969 246.046875 606.699219 243.0625 606.699219 239.335938 C 606.699219 234.410156 607.292969 232.621094 608.9375 232.621094 C 610.277344 232.621094 611.171875 233.964844 611.171875 235.902344 Z M 563.136719 240.824219 C 564.179688 242.914062 564.925781 245.003906 564.925781 245.300781 C 564.925781 245.75 541.207031 245.898438 512.414062 245.75 C 483.472656 245.75 461.839844 245.300781 464.226562 245.003906 C 473.921875 243.660156 546.726562 237.394531 553.886719 237.246094 C 560.601562 237.097656 561.644531 237.542969 563.136719 240.824219 Z M 281.921875 252.3125 C 278.789062 255.296875 274.015625 255.894531 203.003906 262.011719 C 161.378906 265.589844 126.472656 268.277344 125.425781 267.828125 C 123.785156 267.230469 114.386719 252.015625 114.386719 249.925781 C 114.386719 249.480469 152.875 249.03125 199.722656 249.03125 L 285.054688 249.03125 Z M 539.566406 250.375 L 568.65625 251.269531 L 574.921875 269.917969 C 581.933594 290.804688 589.09375 324.519531 591.929688 350.476562 C 594.464844 372.257812 594.464844 431.039062 592.078125 453.414062 C 588.347656 487.726562 581.636719 521.144531 572.386719 550.683594 L 569.253906 560.828125 L 498.835938 560.828125 C 424.09375 560.828125 394.257812 559.1875 359.796875 553.367188 C 325.632812 547.402344 282.816406 535.019531 276.253906 528.902344 C 274.3125 527.261719 259.992188 503.542969 244.328125 476.242188 L 215.980469 426.710938 L 262.527344 346.152344 L 309.074219 265.441406 L 316.53125 263.203125 C 333.839844 257.832031 364.273438 253.359375 406.042969 250.074219 C 416.636719 249.179688 509.578125 249.328125 539.566406 250.375 Z M 608.785156 260.519531 C 607.445312 274.09375 606.699219 274.242188 606.699219 261.265625 C 606.699219 254.847656 607.292969 250.523438 608.191406 250.523438 C 609.234375 250.523438 609.382812 254.105469 608.785156 260.519531 Z M 629.074219 251.417969 C 629.074219 253.507812 621.316406 294.53125 620.871094 294.980469 C 620.570312 295.277344 619.675781 294.234375 618.78125 292.742188 C 617.738281 290.652344 617.886719 283.640625 618.929688 270.214844 L 620.570312 250.523438 L 624.898438 250.523438 C 627.136719 250.523438 629.074219 250.972656 629.074219 251.417969 Z M 652.945312 251.417969 C 652.945312 253.207031 635.042969 318.105469 634.445312 318.699219 C 634 319.148438 632.507812 317.207031 631.164062 314.226562 C 628.777344 309.300781 628.925781 307.960938 633.402344 281.703125 C 636.085938 266.636719 638.472656 253.359375 638.773438 252.3125 C 639.371094 250.523438 652.945312 249.628906 652.945312 251.417969 Z M 681.289062 251.269531 C 681.289062 252.3125 649.8125 338.988281 648.617188 341.078125 C 648.023438 342.273438 646.230469 340.480469 643.996094 336.453125 L 640.414062 329.890625 L 650.558594 291.996094 C 656.078125 271.261719 660.851562 253.359375 661.152344 252.3125 C 661.597656 251.121094 665.03125 250.523438 671.59375 250.523438 C 676.964844 250.523438 681.289062 250.820312 681.289062 251.269531 Z M 714.109375 251.566406 C 714.109375 253.804688 661.449219 365.246094 660.554688 364.800781 C 660.105469 364.351562 658.019531 361.070312 656.078125 357.488281 L 652.496094 350.777344 L 667.714844 308.554688 C 676.21875 285.285156 684.421875 262.605469 686.066406 258.28125 L 688.898438 250.523438 L 701.578125 250.523438 C 708.441406 250.523438 714.109375 250.972656 714.109375 251.566406 Z M 747.378906 260.667969 C 744.246094 266.335938 726.644531 297.21875 708.144531 329.292969 C 683.082031 372.707031 674.128906 387.027344 672.9375 385.835938 C 672.042969 384.789062 669.652344 381.210938 667.863281 377.777344 L 664.433594 371.511719 L 692.480469 310.941406 L 720.675781 250.523438 L 753.199219 250.523438 Z M 269.539062 262.457031 C 267.601562 263.503906 140.195312 286.328125 136.019531 286.328125 C 134.675781 286.328125 127.214844 274.394531 128.113281 273.648438 C 128.410156 273.347656 261.183594 261.710938 269.539062 261.265625 C 271.480469 261.117188 271.480469 261.265625 269.539062 262.457031 Z M 127.066406 279.914062 C 128.707031 283.046875 130.199219 286.027344 130.5 286.625 C 130.796875 287.074219 126.023438 288.265625 120.054688 289.3125 C 114.089844 290.207031 108.121094 291.398438 106.777344 291.699219 C 105.136719 292.144531 102.453125 289.90625 98.871094 284.984375 C 95.886719 280.957031 93.5 277.375 93.5 276.929688 C 93.5 276.035156 102.453125 275.140625 116.773438 274.691406 C 124.082031 274.394531 124.382812 274.542969 127.066406 279.914062 Z M 227.617188 277.972656 C 227.320312 278.273438 208.671875 283.492188 186.144531 289.460938 C 144.523438 300.5 141.238281 300.796875 140.046875 294.832031 C 139.75 293.191406 141.984375 292.144531 149.742188 290.804688 C 155.261719 289.90625 174.359375 286.625 191.964844 283.34375 C 224.632812 277.527344 228.8125 276.929688 227.617188 277.972656 Z M 136.765625 296.621094 C 139.300781 301.542969 138.554688 302.140625 126.917969 305.125 L 115.582031 307.960938 L 112 303.484375 C 110.058594 301.097656 108.867188 298.859375 109.164062 298.410156 C 109.910156 297.816406 128.113281 294.234375 132.585938 293.9375 C 134.078125 293.9375 135.871094 295.128906 136.765625 296.621094 Z M 184.355469 299.007812 C 183.609375 299.605469 150.488281 311.6875 149.296875 311.6875 C 148.996094 311.6875 148.699219 310.792969 148.699219 309.75 C 148.699219 308.40625 154.667969 306.019531 165.558594 303.183594 C 183.011719 298.410156 185.398438 297.816406 184.355469 299.007812 Z M 106.03125 304.378906 C 107.523438 306.914062 108.417969 309.300781 107.972656 309.601562 C 107.523438 310.046875 102.453125 311.6875 96.78125 313.179688 L 86.191406 315.867188 L 81.566406 309.898438 C 78.878906 306.617188 77.089844 303.78125 77.238281 303.632812 C 77.984375 302.886719 94.992188 300.203125 99.46875 299.902344 C 102.304688 299.753906 104.09375 300.949219 106.03125 304.378906 Z M 144.523438 313.332031 C 143.925781 313.777344 139.152344 315.71875 133.929688 317.507812 C 125.277344 320.640625 124.234375 320.789062 122.144531 318.550781 C 120.800781 317.359375 120.054688 315.867188 120.503906 315.566406 C 120.800781 315.121094 126.171875 313.628906 132.289062 311.988281 C 140.046875 310.046875 143.777344 309.75 144.523438 310.792969 C 145.117188 311.6875 145.117188 312.882812 144.523438 313.332031 Z M 117.222656 320.34375 C 118.5625 322.730469 117.519531 323.476562 109.015625 326.609375 C 99.765625 329.890625 99.320312 329.890625 96.484375 327.355469 C 94.84375 325.863281 93.5 324.21875 93.5 323.625 C 93.5 322.28125 107.824219 317.953125 112.449219 317.804688 C 114.238281 317.65625 116.476562 318.851562 117.222656 320.34375 Z M 141.390625 326.757812 C 136.167969 329.144531 131.542969 330.785156 131.09375 330.335938 C 130.050781 329.292969 130.5 328.996094 139.75 325.414062 C 151.535156 320.9375 152.578125 321.683594 141.390625 326.757812 Z M 87.832031 327.652344 C 89.324219 328.996094 90.515625 330.785156 90.515625 331.679688 C 90.515625 333.320312 77.835938 338.542969 73.808594 338.542969 C 71.570312 338.542969 64.113281 331.53125 65.304688 330.488281 C 66.199219 329.589844 80.523438 325.414062 82.910156 325.265625 C 84.101562 325.117188 86.339844 326.160156 87.832031 327.652344 Z M 125.574219 332.574219 C 126.023438 333.320312 122.742188 335.707031 117.96875 337.796875 C 108.269531 342.121094 106.925781 342.273438 106.925781 339.4375 C 106.925781 338.394531 110.507812 336.007812 114.835938 334.367188 C 124.382812 330.785156 124.382812 330.785156 125.574219 332.574219 Z M 100.660156 343.316406 C 101.855469 344.808594 100.214844 346.152344 93.949219 348.835938 C 86.488281 352.117188 85.59375 352.265625 83.355469 350.03125 C 80.523438 347.195312 80.523438 347.195312 88.28125 344.0625 C 95.589844 341.078125 98.574219 340.929688 100.660156 343.316406 Z M 126.320312 346.746094 C 126.320312 347.046875 124.382812 348.386719 121.847656 349.730469 C 116.175781 352.566406 115.878906 351.371094 121.546875 348.386719 C 126.171875 345.851562 126.320312 345.703125 126.320312 346.746094 Z M 76.046875 353.164062 C 78.433594 355.699219 78.136719 355.996094 71.71875 359.277344 C 65.304688 362.261719 64.558594 362.410156 61.277344 360.175781 C 56.203125 356.890625 56.800781 355.550781 64.113281 353.011719 C 72.464844 350.03125 73.210938 350.03125 76.046875 353.164062 Z M 106.183594 358.683594 C 100.8125 361.964844 94.992188 363.605469 94.992188 361.667969 C 94.992188 360.324219 106.183594 355.101562 109.164062 355.101562 C 111.253906 355.101562 110.507812 355.996094 106.183594 358.683594 Z M 88.726562 367.1875 C 88.28125 368.230469 85.890625 370.320312 83.207031 371.8125 C 79.328125 374.199219 78.136719 374.347656 76.195312 372.707031 C 74.105469 371.066406 74.554688 370.46875 78.878906 368.230469 C 84.699219 365.097656 89.472656 364.648438 88.726562 367.1875 Z M 120.355469 366.441406 C 120.355469 368.230469 109.910156 374.644531 107.972656 373.898438 C 107.078125 373.601562 109.316406 371.660156 112.894531 369.421875 C 120.355469 364.949219 120.355469 364.949219 120.355469 366.441406 Z M 66.945312 377.480469 C 69.929688 379.121094 69.929688 379.269531 65.753906 381.957031 C 60.53125 385.386719 59.1875 385.386719 55.457031 382.703125 C 52.773438 380.761719 52.921875 380.613281 57.101562 378.375 C 62.320312 375.390625 63.066406 375.390625 66.945312 377.480469 Z M 100.960938 379.566406 C 100.511719 382.253906 92.753906 386.28125 90.667969 384.789062 C 89.023438 383.894531 89.769531 382.851562 93.648438 380.464844 C 98.871094 377.332031 101.40625 377.03125 100.960938 379.566406 Z M 127.066406 382.550781 C 122.441406 386.28125 120.355469 387.175781 120.355469 385.089844 C 120.355469 383.746094 127.960938 378.972656 130.050781 378.824219 C 130.945312 378.824219 129.605469 380.464844 127.066406 382.550781 Z M 82.609375 391.800781 C 83.65625 394.636719 76.046875 397.769531 73.660156 395.382812 C 72.316406 393.890625 72.464844 393.144531 74.851562 391.355469 C 78.136719 388.816406 81.714844 389.117188 82.609375 391.800781 Z M 114.386719 392.25 C 114.386719 394.488281 107.226562 398.515625 105.285156 397.320312 C 104.09375 396.574219 104.691406 395.382812 107.078125 393.589844 C 110.957031 390.609375 114.386719 389.863281 114.386719 392.25 Z M 138.257812 395.980469 C 136.316406 398.066406 134.378906 399.410156 134.078125 398.960938 C 133.035156 397.917969 138.40625 392.25 140.195312 392.25 C 141.089844 392.25 140.195312 393.890625 138.257812 395.980469 Z M 64.855469 403.140625 C 66.347656 404.332031 66.050781 405.078125 63.664062 406.71875 C 60.980469 408.660156 60.082031 408.660156 56.652344 406.421875 L 52.773438 403.738281 L 56.355469 401.945312 C 59.785156 400.007812 60.980469 400.15625 64.855469 403.140625 Z M 98.425781 403.738281 C 99.019531 404.183594 98.425781 405.824219 97.082031 407.316406 C 95.140625 409.554688 93.949219 409.703125 91.5625 408.359375 C 88.578125 406.871094 88.578125 406.71875 91.261719 404.78125 C 94.394531 402.542969 96.933594 402.09375 98.425781 403.738281 Z M 127.8125 405.378906 C 127.8125 407.914062 122.144531 411.941406 121.101562 410.152344 C 120.503906 409.257812 121.25 407.464844 122.742188 406.421875 C 126.023438 404.035156 127.8125 403.585938 127.8125 405.378906 Z M 151.683594 410.003906 C 150.191406 412.984375 147.207031 414.328125 147.207031 412.089844 C 147.207031 410.597656 152.128906 405.527344 152.726562 406.273438 C 153.175781 406.570312 152.726562 408.359375 151.683594 410.003906 Z M 175.554688 412.238281 C 175.554688 412.539062 174.359375 413.730469 173.015625 414.777344 C 170.628906 416.714844 170.480469 416.566406 172.417969 414.179688 C 174.359375 411.792969 175.554688 411.046875 175.554688 412.238281 Z M 84.550781 417.460938 C 84.550781 419.847656 80.371094 420.445312 77.539062 418.355469 C 75.300781 416.566406 75.152344 415.96875 76.941406 414.777344 C 79.328125 413.285156 84.550781 415.222656 84.550781 417.460938 Z M 114.089844 417.460938 C 115.582031 418.355469 115.582031 418.953125 113.640625 420.59375 C 110.957031 422.832031 107.375 420.59375 109.015625 417.761719 C 110.210938 415.820312 111.402344 415.671875 114.089844 417.460938 Z M 142.730469 420.445312 C 142.730469 421.191406 141.835938 422.535156 140.644531 423.429688 C 138.257812 425.367188 135.871094 423.128906 137.511719 420.59375 C 138.703125 418.804688 142.730469 418.65625 142.730469 420.445312 Z M 166.601562 425.070312 C 164.960938 428.054688 162.125 429.246094 162.125 426.859375 C 162.125 425.21875 165.40625 422.085938 166.898438 422.085938 C 167.644531 422.085938 167.496094 423.429688 166.601562 425.070312 Z M 67.542969 427.160156 C 69.78125 428.800781 69.929688 429.695312 68.585938 431.1875 C 65.902344 433.871094 56.949219 429.992188 59.335938 427.160156 C 61.574219 424.472656 63.8125 424.472656 67.542969 427.160156 Z M 103.046875 431.335938 C 102.601562 431.933594 100.960938 431.78125 99.320312 431.039062 C 97.679688 430.140625 96.78125 428.800781 97.230469 428.054688 C 97.828125 427.160156 99.320312 427.308594 100.960938 428.351562 C 102.453125 429.394531 103.347656 430.738281 103.046875 431.335938 Z M 188.382812 431.335938 C 187.039062 433.125 185.996094 434.171875 185.996094 433.574219 C 185.996094 431.933594 189.578125 426.5625 190.171875 427.308594 C 190.472656 427.605469 189.726562 429.394531 188.382812 431.335938 Z M 131.394531 434.320312 C 130.945312 435.066406 129.605469 434.917969 128.410156 433.871094 C 127.367188 432.976562 126.769531 431.632812 127.214844 430.738281 C 127.664062 429.992188 129.007812 430.140625 130.199219 431.1875 C 131.246094 432.082031 131.839844 433.425781 131.394531 434.320312 Z M 241.195312 478.03125 C 255.367188 502.644531 267.300781 523.234375 267.601562 523.832031 C 267.898438 524.578125 267.898438 525.023438 267.601562 525.023438 C 267.152344 525.023438 253.578125 506.078125 237.464844 482.953125 L 207.925781 440.882812 L 210.609375 435.960938 C 212.101562 433.273438 213.894531 431.484375 214.488281 432.082031 C 214.9375 432.828125 227.023438 453.414062 241.195312 478.03125 Z M 157.652344 436.257812 C 157.652344 437.453125 156.605469 438.496094 155.414062 438.496094 C 154.070312 438.496094 153.621094 437.601562 154.070312 436.257812 C 154.667969 435.066406 155.5625 434.019531 156.308594 434.019531 C 157.054688 434.019531 157.652344 435.066406 157.652344 436.257812 Z M 90.515625 440.734375 C 92.007812 442.523438 92.007812 442.972656 90.070312 442.972656 C 86.636719 442.972656 83.058594 441.332031 83.058594 439.839844 C 83.058594 437.601562 88.578125 438.347656 90.515625 440.734375 Z M 182.117188 442.226562 C 181.222656 444.613281 178.535156 445.359375 178.535156 443.269531 C 178.535156 441.628906 180.175781 439.988281 181.667969 439.988281 C 182.414062 439.988281 182.566406 441.03125 182.117188 442.226562 Z M 220.457031 467.886719 C 245.667969 503.988281 246.265625 505.03125 243.132812 501.898438 C 241.492188 500.257812 231.347656 488.472656 220.757812 475.792969 C 203.449219 455.207031 201.511719 452.371094 202.855469 449.238281 C 203.75 447.449219 204.496094 445.957031 204.792969 445.957031 C 204.941406 445.957031 212.101562 455.800781 220.457031 467.886719 Z M 716.199219 504.585938 C 733.058594 533.824219 746.933594 558.589844 746.933594 559.484375 C 746.933594 560.378906 744.394531 560.828125 740.816406 560.53125 L 734.699219 560.082031 L 712.46875 512.34375 C 683.378906 449.984375 682.335938 447.894531 683.976562 449.683594 C 684.722656 450.429688 699.191406 475.195312 716.199219 504.585938 Z M 74.851562 452.222656 C 81.714844 455.355469 78.730469 458.785156 71.273438 456.25 C 65.304688 454.160156 65.15625 452.667969 70.675781 450.582031 C 70.824219 450.429688 72.765625 451.175781 74.851562 452.222656 Z M 114.238281 454.308594 C 116.328125 456.101562 111.402344 454.460938 109.015625 452.519531 C 106.332031 450.429688 106.332031 450.429688 109.910156 452.074219 C 112 452.96875 113.9375 454.011719 114.238281 454.308594 Z M 175.554688 453.5625 C 175.554688 454.308594 174.957031 454.90625 174.0625 454.90625 C 173.316406 454.90625 172.570312 453.863281 172.570312 452.519531 C 172.570312 451.328125 173.316406 450.730469 174.0625 451.175781 C 174.957031 451.625 175.554688 452.667969 175.554688 453.5625 Z M 686.511719 504.136719 C 698.597656 529.945312 709.488281 553.367188 710.53125 555.90625 L 712.621094 560.828125 L 701.132812 560.828125 L 682.78125 510.402344 C 660.851562 449.984375 662.792969 455.503906 663.6875 456.398438 C 664.132812 456.847656 674.429688 478.328125 686.511719 504.136719 Z M 207.476562 470.125 C 212.101562 475.496094 215.832031 480.566406 215.832031 481.164062 C 215.832031 481.910156 211.507812 478.03125 206.136719 472.808594 C 200.765625 467.585938 196.4375 462.21875 196.4375 461.171875 C 196.4375 457.890625 198.527344 459.53125 207.476562 470.125 Z M 100.960938 464.605469 C 104.988281 466.839844 103.945312 467.4375 98.425781 465.945312 C 96.484375 465.351562 94.992188 464.453125 94.992188 463.707031 C 94.992188 461.917969 96.632812 462.066406 100.960938 464.605469 Z M 659.660156 501.152344 C 665.179688 516.371094 672.191406 535.914062 675.472656 544.714844 L 681.140625 560.828125 L 671.445312 560.828125 L 659.660156 517.117188 C 653.242188 493.246094 647.722656 472.210938 647.425781 470.570312 L 646.828125 467.585938 L 648.171875 470.570312 C 648.917969 472.210938 654.140625 485.9375 659.660156 501.152344 Z M 88.429688 478.777344 C 90.964844 479.820312 92.007812 480.863281 91.113281 481.761719 C 89.324219 483.550781 78.136719 480.714844 79.328125 478.628906 C 80.523438 476.835938 83.355469 476.835938 88.429688 478.777344 Z M 113.9375 488.621094 C 113.492188 489.070312 112.148438 489.21875 111.105469 488.773438 C 109.910156 488.324219 110.359375 487.875 112 487.875 C 113.640625 487.726562 114.535156 488.175781 113.9375 488.621094 Z M 643.996094 523.832031 C 648.917969 542.480469 652.945312 558.292969 652.945312 559.1875 C 652.945312 560.082031 651.304688 560.828125 649.214844 560.828125 C 647.128906 560.828125 645.484375 560.230469 645.484375 559.636719 C 645.484375 559.039062 642.800781 543.375 639.519531 525.023438 C 634.148438 495.039062 632.65625 483.996094 634.296875 488.472656 C 634.59375 489.21875 638.921875 505.183594 643.996094 523.832031 Z M 108.121094 506.375 C 109.910156 508.164062 106.777344 508.910156 100.960938 507.867188 C 96.1875 507.121094 95.140625 506.375 96.484375 504.882812 C 97.679688 503.390625 99.46875 503.242188 102.75 504.289062 C 105.285156 504.882812 107.671875 505.929688 108.121094 506.375 Z M 628.925781 556.652344 C 629.074219 559.484375 628.328125 560.828125 626.839844 560.828125 C 625.644531 560.828125 624.601562 560.679688 624.601562 560.378906 C 623.40625 550.980469 620.273438 512.941406 620.273438 510.851562 C 620.421875 506.972656 628.777344 551.28125 628.925781 556.652344 Z M 126.769531 530.992188 C 128.113281 530.992188 129.304688 531.589844 129.304688 532.484375 C 129.304688 533.230469 126.320312 533.976562 122.59375 533.976562 C 116.328125 533.976562 114.535156 532.929688 116.921875 530.394531 C 117.519531 529.796875 119.460938 529.648438 121.101562 530.097656 C 122.742188 530.542969 125.277344 530.992188 126.769531 530.992188 Z M 609.53125 554.414062 C 609.683594 557.992188 609.085938 560.828125 608.191406 560.828125 C 607.292969 560.828125 606.847656 554.859375 606.847656 545.460938 C 607.144531 531.289062 607.144531 530.84375 608.191406 539.195312 C 608.785156 544.121094 609.382812 550.980469 609.53125 554.414062 Z M 177.789062 559.335938 C 184.800781 560.230469 181.667969 560.53125 163.320312 560.679688 C 142.582031 560.828125 139.75 560.53125 139.75 558.441406 C 139.75 556.351562 141.539062 556.203125 154.367188 557.097656 C 162.273438 557.695312 172.867188 558.589844 177.789062 559.335938 Z M 686.960938 582.757812 C 685.46875 583.058594 682.78125 583.058594 680.992188 582.757812 C 679.054688 582.460938 680.246094 582.160156 683.527344 582.160156 C 686.808594 582.011719 688.300781 582.3125 686.960938 582.757812 Z M 723.660156 584.101562 C 724.40625 585.890625 723.359375 586.339844 717.542969 585.890625 C 708.292969 585.292969 706.949219 581.714844 716.050781 581.714844 C 720.675781 581.714844 723.0625 582.460938 723.660156 584.101562 Z M 633.253906 599.019531 C 638.175781 600.363281 637.28125 602.152344 632.058594 601.40625 C 629.671875 601.109375 627.582031 600.214844 627.582031 599.46875 C 627.582031 597.976562 628.628906 597.828125 633.253906 599.019531 Z M 665.328125 604.242188 C 666.074219 607.074219 665.773438 607.226562 660.703125 606.328125 C 654.289062 605.136719 652.945312 604.390625 652.945312 602.449219 C 652.945312 601.707031 655.480469 601.109375 658.761719 601.109375 C 663.386719 601.109375 664.730469 601.707031 665.328125 604.242188 Z M 435.882812 639.898438 C 470.34375 659.738281 500.03125 676.894531 501.96875 678.089844 L 505.253906 680.324219 L 501.96875 686.144531 C 500.03125 689.425781 497.792969 691.8125 497.046875 691.515625 C 494.660156 690.621094 375.011719 606.925781 372.476562 604.390625 C 369.644531 601.554688 363.675781 598.273438 435.882812 639.898438 Z M 698.445312 608.566406 C 700.683594 612.894531 700.683594 613.042969 697.402344 612.894531 C 689.644531 612.445312 685.320312 610.65625 684.125 607.375 C 682.929688 604.242188 683.230469 604.09375 689.496094 604.09375 C 695.3125 604.09375 696.359375 604.539062 698.445312 608.566406 Z M 464.226562 633.929688 C 493.019531 647.207031 516.589844 658.394531 516.886719 658.542969 C 517.1875 658.84375 516.292969 661.082031 514.949219 663.765625 C 513.160156 667.199219 511.816406 668.242188 510.027344 667.496094 C 506.296875 666.152344 403.804688 606.925781 403.804688 606.179688 C 403.804688 605.734375 405.597656 606.480469 407.984375 607.671875 C 410.222656 608.71875 435.582031 620.652344 464.226562 633.929688 Z M 432.898438 660.78125 C 464.972656 683.160156 491.378906 701.808594 491.675781 702.105469 C 492.570312 702.851562 486.453125 713.59375 484.8125 714.042969 C 483.621094 714.488281 369.195312 619.457031 362.78125 612.746094 C 361.140625 610.953125 363.226562 612 367.253906 614.832031 C 371.433594 617.667969 400.972656 638.40625 432.898438 660.78125 Z M 489.886719 624.976562 C 528.078125 638.703125 528.675781 639.152344 527.183594 642.433594 C 526.289062 644.371094 525.09375 645.863281 524.496094 645.863281 C 523.152344 645.863281 458.257812 615.878906 452.140625 612.445312 C 446.175781 609.015625 446.027344 609.015625 489.886719 624.976562 Z M 519.871094 616.027344 C 531.957031 619.308594 538.074219 621.546875 538.074219 622.890625 C 538.074219 625.875 537.328125 625.722656 515.398438 617.519531 C 493.316406 609.164062 493.617188 609.015625 519.871094 616.027344 Z M 577.605469 611.550781 C 578.054688 612.296875 577.757812 613.042969 577.011719 613.042969 C 576.113281 613.042969 575.367188 612.296875 575.367188 611.550781 C 575.367188 610.65625 575.667969 610.058594 575.964844 610.058594 C 576.414062 610.058594 577.160156 610.65625 577.605469 611.550781 Z M 594.464844 615.578125 C 594.761719 616.773438 593.71875 617.519531 591.929688 617.519531 C 590.136719 617.519531 588.796875 616.625 588.796875 615.132812 C 588.796875 612.445312 593.421875 612.894531 594.464844 615.578125 Z M 613.261719 616.921875 C 614.605469 617.371094 615.648438 619.160156 615.648438 620.800781 C 615.648438 623.1875 614.902344 623.636719 612.367188 622.890625 C 610.425781 622.441406 608.488281 621.996094 607.890625 621.996094 C 607.144531 621.996094 606.699219 620.652344 606.699219 619.011719 C 606.699219 616.027344 608.9375 615.28125 613.261719 616.921875 Z M 417.679688 671.972656 L 479.742188 724.035156 L 476.460938 730.003906 C 474.667969 733.285156 472.429688 736.121094 471.683594 736.417969 C 470.789062 736.71875 443.636719 710.3125 411.265625 677.789062 C 378.890625 645.265625 353.082031 618.863281 353.976562 619.160156 C 354.875 619.457031 383.515625 643.179688 417.679688 671.972656 Z M 639.070312 621.695312 C 639.964844 622.292969 641.308594 624.679688 641.90625 627.066406 C 642.800781 630.796875 642.652344 631.242188 640.414062 630.496094 C 638.921875 629.902344 636.984375 629.453125 636.085938 629.453125 C 633.253906 629.453125 631.015625 627.363281 629.972656 623.785156 C 629.074219 620.949219 629.375 620.503906 633.105469 620.503906 C 635.339844 620.503906 638.027344 621.097656 639.070312 621.695312 Z M 463.929688 752.082031 C 461.839844 755.960938 459.601562 759.246094 459.152344 759.09375 C 458.257812 759.09375 354.128906 635.121094 347.265625 626.023438 C 345.324219 623.335938 371.582031 649.144531 405.746094 683.011719 L 467.804688 744.921875 Z M 671.296875 627.8125 C 671.890625 628.410156 672.785156 631.394531 673.382812 634.375 L 674.277344 639.898438 L 667.117188 637.808594 C 658.761719 635.273438 659.210938 635.570312 658.019531 629.601562 L 656.972656 624.679688 L 663.539062 625.722656 C 667.117188 626.320312 670.699219 627.214844 671.296875 627.8125 Z M 561.34375 633.480469 C 559.703125 635.121094 558.808594 632.886719 560.003906 630.050781 C 561.046875 627.363281 561.195312 627.363281 561.644531 629.902344 C 561.941406 631.394531 561.792969 633.035156 561.34375 633.480469 Z M 400.671875 700.316406 L 455.722656 765.957031 L 451.992188 772.671875 C 449.90625 776.402344 447.816406 779.832031 447.21875 780.429688 C 446.769531 781.027344 426.480469 753.128906 402.3125 718.515625 C 345.324219 637.210938 340.253906 629.75 343.085938 632.4375 C 344.429688 633.628906 370.238281 664.214844 400.671875 700.316406 Z M 575.519531 632.886719 C 575.367188 633.480469 575.367188 634.972656 575.367188 636.167969 C 575.367188 637.359375 574.324219 638.40625 573.132812 638.40625 C 570.894531 638.40625 570 633.78125 571.9375 631.839844 C 573.132812 630.648438 575.667969 631.394531 575.519531 632.886719 Z M 594.464844 641.238281 C 594.914062 646.011719 593.570312 646.910156 588.945312 644.519531 C 587.003906 643.476562 586.558594 641.835938 587.003906 638.554688 C 587.453125 634.824219 588.050781 634.375 590.882812 635.273438 C 592.972656 636.167969 594.167969 637.957031 594.464844 641.238281 Z M 393.660156 715.085938 L 443.789062 786.695312 L 439.460938 794.304688 C 437.074219 798.332031 434.6875 801.910156 434.089844 802.0625 C 433.046875 802.507812 358.15625 674.359375 341.445312 643.773438 C 334.433594 630.796875 336.820312 634.226562 393.660156 715.085938 Z M 615.203125 641.386719 C 616.84375 641.386719 619.527344 652.875 618.183594 654.21875 C 617.738281 654.664062 615.050781 653.917969 612.070312 652.726562 C 607.292969 650.785156 606.699219 649.890625 606.699219 644.96875 C 606.699219 640.046875 606.996094 639.597656 610.128906 640.492188 C 611.917969 640.941406 614.15625 641.386719 615.203125 641.386719 Z M 536.730469 648.398438 C 534.941406 651.382812 534.640625 650.488281 535.984375 646.609375 C 536.582031 645.265625 537.328125 644.519531 537.625 644.96875 C 538.074219 645.265625 537.625 646.910156 536.730469 648.398438 Z M 546.277344 649.890625 C 545.085938 654.515625 544.339844 655.710938 543.292969 654.515625 C 541.953125 653.175781 544.1875 645.863281 545.832031 645.863281 C 546.726562 645.863281 546.875 647.503906 546.277344 649.890625 Z M 646.082031 651.683594 C 648.023438 658.695312 648.46875 665.257812 647.128906 665.257812 C 646.230469 665.257812 642.949219 664.214844 639.667969 662.871094 C 633.699219 660.484375 632.058594 657.796875 632.058594 650.191406 C 632.058594 646.3125 632.207031 646.3125 638.773438 647.804688 C 642.652344 648.699219 645.636719 650.339844 646.082031 651.683594 Z M 558.0625 651.53125 C 557.914062 652.578125 557.765625 654.964844 557.765625 657.054688 C 557.46875 661.230469 552.992188 662.273438 552.992188 658.097656 C 552.992188 653.324219 554.929688 648.699219 556.570312 649.296875 C 557.46875 649.59375 558.210938 650.636719 558.0625 651.53125 Z M 573.878906 661.675781 C 573.878906 668.242188 573.132812 668.988281 568.804688 667.347656 C 566.417969 666.453125 565.820312 662.421875 567.3125 656.902344 C 567.910156 654.664062 568.953125 653.917969 571.042969 654.367188 C 573.28125 654.964844 573.878906 656.457031 573.878906 661.675781 Z M 523.152344 661.828125 C 522.855469 665.109375 517.484375 673.015625 516.589844 671.375 C 515.398438 669.585938 520.019531 660.78125 521.960938 660.78125 C 522.558594 660.78125 523.152344 661.230469 523.152344 661.828125 Z M 591.929688 662.273438 C 594.167969 663.46875 594.761719 665.554688 594.761719 671.226562 C 594.761719 675.402344 594.464844 678.683594 594.015625 678.683594 C 593.421875 678.683594 591.183594 677.640625 588.796875 676.445312 C 584.917969 674.359375 584.320312 673.3125 584.320312 667.496094 C 584.320312 660.335938 585.960938 659.140625 591.929688 662.273438 Z M 528.375 671.972656 C 526.882812 676 525.542969 677.191406 524.496094 676.148438 C 523.453125 675.105469 523.75 672.867188 525.542969 669.136719 C 528.972656 661.976562 531.507812 664.511719 528.375 671.972656 Z M 540.160156 669.433594 C 540.90625 670.777344 537.773438 683.160156 536.582031 683.160156 C 536.132812 683.160156 534.941406 682.5625 534.042969 681.964844 C 532.554688 681.070312 532.703125 679.429688 534.640625 674.507812 C 536.878906 668.539062 538.519531 666.898438 540.160156 669.433594 Z M 614.605469 670.480469 C 619.378906 672.417969 619.828125 673.164062 620.871094 680.921875 C 621.316406 685.546875 621.46875 689.722656 621.019531 690.320312 C 620.421875 690.769531 616.992188 689.722656 613.410156 687.933594 L 606.699219 684.652344 L 606.699219 676.445312 C 606.699219 671.972656 607.292969 668.242188 608.039062 668.242188 C 608.785156 668.242188 611.621094 669.285156 614.605469 670.480469 Z M 552.542969 675.402344 C 553.738281 676.148438 553.886719 678.386719 552.992188 683.160156 C 552.246094 686.890625 551.648438 690.320312 551.5 691.066406 C 551.5 691.664062 550.15625 691.367188 548.367188 690.320312 C 545.832031 688.679688 545.53125 687.488281 546.277344 682.5625 C 547.472656 674.210938 548.664062 672.867188 552.542969 675.402344 Z M 570.894531 692.109375 C 570.894531 696.734375 570.445312 700.914062 570 701.359375 C 569.550781 701.957031 567.164062 701.210938 564.777344 699.867188 C 560.75 697.480469 560.449219 696.886719 561.195312 691.367188 C 562.835938 680.476562 563.136719 680.175781 567.3125 681.964844 C 570.445312 683.457031 570.894531 684.503906 570.894531 692.109375 Z M 512.710938 684.503906 C 512.5625 684.949219 511.070312 688.234375 509.28125 691.664062 C 506.742188 696.585938 505.550781 697.632812 503.761719 696.585938 C 501.820312 695.394531 501.96875 694.347656 505.101562 688.53125 C 507.339844 684.203125 509.28125 682.117188 510.621094 682.710938 C 511.816406 683.160156 512.710938 683.90625 512.710938 684.503906 Z M 520.765625 688.976562 C 522.257812 691.214844 517.039062 704.046875 514.800781 704.046875 C 511.070312 704.046875 510.921875 700.167969 514.203125 693.753906 C 517.1875 687.785156 519.125 686.292969 520.765625 688.976562 Z M 594.761719 705.539062 C 594.761719 711.355469 594.464844 715.980469 593.867188 715.980469 C 593.421875 715.980469 590.4375 714.488281 587.304688 712.550781 C 581.636719 709.417969 581.335938 708.96875 581.335938 701.511719 C 581.335938 689.425781 581.933594 688.679688 588.945312 692.109375 L 594.761719 695.09375 Z M 531.957031 695.691406 C 532.851562 696.734375 533.300781 698.675781 533 699.71875 C 532.554688 700.914062 531.507812 704.644531 530.613281 708.074219 C 528.972656 714.339844 528.972656 714.488281 525.390625 712.101562 C 521.664062 709.714844 521.664062 710.011719 526.882812 695.394531 C 527.777344 693.007812 529.867188 693.15625 531.957031 695.691406 Z M 548.515625 707.625 C 548.367188 711.953125 546.128906 723.441406 545.085938 724.335938 C 543.890625 725.527344 536.582031 720.457031 536.582031 718.367188 C 536.582031 717.324219 537.625 712.996094 538.820312 708.820312 C 541.054688 701.511719 541.207031 701.210938 544.785156 702.851562 C 547.023438 703.898438 548.515625 705.6875 548.515625 707.625 Z M 499.136719 707.625 C 500.476562 709.269531 500.179688 711.207031 497.496094 716.578125 C 494.363281 722.992188 494.0625 723.292969 491.527344 720.902344 C 488.097656 717.921875 488.097656 717.324219 491.972656 710.910156 C 495.40625 705.089844 496.597656 704.492188 499.136719 707.625 Z M 511.21875 717.472656 C 511.21875 720.605469 506.59375 732.390625 505.253906 732.390625 C 504.65625 732.390625 503.015625 731.046875 501.523438 729.40625 C 498.835938 726.425781 498.835938 726.125 502.269531 719.113281 C 505.253906 712.550781 505.996094 711.953125 508.386719 713.445312 C 510.027344 714.488281 511.21875 716.128906 511.21875 717.472656 Z M 564.925781 714.339844 C 567.910156 716.726562 568.507812 718.21875 568.207031 724.484375 C 567.910156 728.363281 567.460938 733.4375 567.015625 735.824219 L 566.121094 739.851562 L 561.644531 737.3125 C 559.257812 735.824219 556.570312 733.882812 555.824219 732.839844 C 553.886719 730.601562 557.167969 711.503906 559.554688 711.503906 C 560.449219 711.503906 562.835938 712.847656 564.925781 714.339844 Z M 523.304688 724.484375 C 525.542969 726.425781 525.542969 727.320312 523.453125 735.375 C 522.109375 740.296875 520.617188 744.324219 520.019531 744.324219 C 519.574219 744.324219 517.335938 742.984375 515.246094 741.34375 L 511.367188 738.210938 L 514.5 729.40625 C 517.785156 720.605469 518.378906 720.308594 523.304688 724.484375 Z M 487.5 730.304688 C 489.886719 732.539062 489.886719 732.988281 486.902344 739.851562 C 483.320312 748.054688 481.679688 748.800781 477.503906 744.175781 C 474.816406 741.191406 474.816406 741.042969 478.25 734.480469 C 482.128906 727.320312 483.472656 726.722656 487.5 730.304688 Z M 538.820312 734.777344 C 542.996094 737.464844 543.445312 741.789062 540.609375 753.726562 L 538.820312 761.035156 L 533.300781 755.960938 L 527.628906 751.039062 L 530.015625 741.640625 C 531.359375 736.570312 533.148438 732.390625 533.894531 732.390625 C 534.640625 732.390625 536.878906 733.4375 538.820312 734.777344 Z M 499.136719 740.449219 L 502.417969 743.878906 L 499.285156 751.933594 C 497.496094 756.410156 495.703125 760.289062 495.40625 760.585938 C 494.363281 761.632812 487.351562 754.472656 487.351562 752.382812 C 487.351562 749.847656 493.617188 736.867188 494.808594 736.867188 C 495.40625 736.867188 497.195312 738.507812 499.136719 740.449219 Z M 475.414062 752.53125 L 478.847656 756.113281 L 475.414062 764.464844 C 473.625 768.941406 471.535156 772.671875 470.789062 772.671875 C 470.195312 772.671875 467.804688 770.433594 465.71875 767.597656 L 461.839844 762.527344 L 466.015625 755.664062 C 468.253906 751.933594 470.492188 748.800781 471.089844 748.800781 C 471.535156 748.800781 473.476562 750.441406 475.414062 752.53125 Z M 513.308594 752.234375 L 517.632812 755.8125 L 514.949219 766.40625 C 513.605469 772.371094 511.816406 777.148438 511.21875 777.148438 C 510.621094 777.148438 507.9375 774.761719 505.550781 771.925781 L 500.925781 766.851562 L 504.207031 757.753906 C 505.996094 752.828125 507.789062 748.800781 508.234375 748.800781 C 508.683594 748.800781 510.921875 750.441406 513.308594 752.234375 Z M 488.839844 780.28125 L 485.261719 791.019531 L 480.339844 785.203125 C 477.652344 781.921875 475.414062 778.640625 475.414062 777.894531 C 475.414062 776.996094 477.207031 772.820312 479.292969 768.34375 L 483.023438 760.140625 L 492.570312 769.6875 Z M 464.078125 788.785156 C 461.988281 793.40625 460.050781 797.4375 459.601562 797.882812 C 458.558594 798.929688 451.695312 790.425781 450.800781 786.84375 C 450.203125 784.90625 451.546875 780.875 453.933594 776.402344 L 458.109375 769.238281 L 462.882812 774.761719 L 467.804688 780.429688 Z M 464.078125 788.785156 " fill-opacity="1" fill-rule="nonzero"/></g></svg>