<?xml version="1.0" encoding="utf-8"?>
<!-- Generator: Adobe Illustrator 25.4.1, SVG Export Plug-In . SVG Version: 6.00 Build 0)  -->
<svg version="1.1" id="Layer_1" xmlns="http://www.w3.org/2000/svg" xmlns:xlink="http://www.w3.org/1999/xlink" x="0px" y="0px"
	 viewBox="0 0 800 800" style="enable-background:new 0 0 800 800;" xml:space="preserve">
<style type="text/css">
	.st0{fill:#080808;}
	.st1{fill:url(#SVGID_1_);}
	.st2{fill:#19D8D8;}
</style>
<g>
	<rect class="st0" width="800" height="800"/>
	<g>
		<radialGradient id="SVGID_1_" cx="448.1268" cy="351.8681" r="189.0554" gradientUnits="userSpaceOnUse">
			<stop  offset="0" style="stop-color:#063231"/>
			<stop  offset="1" style="stop-color:#028684"/>
		</radialGradient>
		<path class="st1" d="M504.1,371.7l88.7,88.6c-4.8,15.3-11.4,29.8-19.5,43.4L472.7,403.1v-75.8h-75.8L296.3,226.7
			c13.5-8.1,28-14.7,43.4-19.5l88.6,88.7V200c15.4,2.2,30.3,6.1,44.4,11.5v84.4l53.5-53.5c11.6,9.3,22.1,19.8,31.4,31.4l-53.5,53.5
			h84.3c5.4,14.1,9.4,29,11.5,44.4H504.1z"/>
		<path class="st2" d="M472.7,327.3v261.2c-14.1,5.4-29,9.4-44.4,11.5V403.1L273.8,557.6c-11.6-9.3-22.1-19.8-31.4-31.4l154.5-154.5
			H200c2.2-15.4,6.1-30.3,11.5-44.4H472.7z"/>
	</g>
</g>
</svg>
