<svg width="170" height="48" viewBox="0 0 170 48" fill="none" xmlns="http://www.w3.org/2000/svg">
<mask id="mask0_1497_3555" style="mask-type:alpha" maskUnits="userSpaceOnUse" x="0" y="0" width="48" height="48">
<circle cx="24" cy="24" r="24" fill="#D9D9D9"/>
</mask>
<g mask="url(#mask0_1497_3555)">
<path d="M28.3262 19.1851L5.80875 41.7027" stroke="#003645" stroke-width="5.44626" stroke-miterlimit="10"/>
<path fill-rule="evenodd" clip-rule="evenodd" d="M31.0487 -0.174805V2.54832V12.613L37.0129 6.64886L38.9384 4.72331L42.7895 8.57438L40.864 10.4999L34.9019 16.4621H45.1139H47.8371V21.9083H45.1139H34.9002L45.8192 32.8263L47.7449 34.7518L43.8939 38.603L41.9683 36.6776L28.3268 23.0373L28.3256 23.0384L27.1963 21.9091H25.6025V21.9083V20.3153L24.4745 19.1874L24.4755 19.1864L11.038 5.7488L9.11249 3.82325L12.9636 -0.0278199L14.8891 1.89773L25.6025 12.6112V2.54832V-0.174805H31.0487Z" fill="url(#paint0_radial_1497_3555)"/>
<path d="M28.3238 47.9331V19.1851" stroke="#003645" stroke-width="5.44626" stroke-miterlimit="10" stroke-linecap="square"/>
<path d="M28.3242 19.1851H-0.163116" stroke="#003645" stroke-width="5.44626" stroke-miterlimit="10" stroke-linecap="square"/>
</g>
<path d="M67.6068 33.36C62.6148 33.36 58.8468 29.448 58.8468 24.36C58.8468 19.272 62.6148 15.408 67.6068 15.408C72.5988 15.408 76.3668 19.272 76.3668 24.36C76.3668 29.448 72.5988 33.36 67.6068 33.36ZM67.6068 30.984C71.2548 30.984 73.6308 28.056 73.6308 24.36C73.6308 20.664 71.2548 17.784 67.6068 17.784C63.9588 17.784 61.5828 20.664 61.5828 24.36C61.5828 28.056 63.9588 30.984 67.6068 30.984ZM86.849 27.768V20.28H89.273V33H87.017V30.984C86.345 32.304 84.857 33.24 83.129 33.24C80.561 33.24 78.785 31.728 78.785 28.464V20.28H81.209V27.984C81.209 30.192 82.313 31.104 83.897 31.104C85.529 31.104 86.849 29.76 86.849 27.768ZM99.8154 30.648V32.784C99.0714 33.12 98.4234 33.24 97.6554 33.24C95.3034 33.24 93.6714 31.968 93.6714 29.16V22.344H90.8634V20.28H93.6714V16.512H96.0954V20.28H99.9354V22.344H96.0954V28.608C96.0954 30.36 96.9354 30.984 98.2314 30.984C98.8074 30.984 99.3114 30.888 99.8154 30.648ZM112.282 29.208C112.282 31.704 110.338 33.24 106.954 33.24C103.594 33.24 101.602 31.584 101.362 28.848H103.69C103.786 30.432 105.058 31.416 107.002 31.416C108.706 31.416 109.834 30.816 109.834 29.616C109.834 28.56 109.186 28.104 107.602 27.792L105.538 27.408C103.186 26.952 101.866 25.752 101.866 23.832C101.866 21.6 103.81 20.04 106.762 20.04C109.81 20.04 111.874 21.672 112.09 24.288H109.762C109.618 22.752 108.49 21.864 106.786 21.864C105.25 21.864 104.218 22.512 104.218 23.616C104.218 24.648 104.866 25.128 106.402 25.416L108.562 25.824C111.082 26.28 112.282 27.384 112.282 29.208ZM127.072 26.64C127.072 30.48 124.864 33.24 121.456 33.24C119.728 33.24 118.264 32.376 117.352 30.84V37.632H114.928V20.28H117.184V22.608C118.096 20.976 119.656 20.04 121.456 20.04C124.84 20.04 127.072 22.8 127.072 26.64ZM124.552 26.64C124.552 23.784 123.04 22.176 120.952 22.176C118.936 22.176 117.352 23.784 117.352 26.64C117.352 29.448 118.912 31.08 120.952 31.08C123.04 31.08 124.552 29.496 124.552 26.64ZM134.762 33.24C131.09 33.24 128.618 30.576 128.618 26.568C128.618 22.8 131.186 20.04 134.69 20.04C138.482 20.04 141.002 23.112 140.57 27.24H131.09C131.282 29.832 132.578 31.344 134.714 31.344C136.514 31.344 137.762 30.36 138.17 28.704H140.57C139.946 31.536 137.762 33.24 134.762 33.24ZM134.642 21.864C132.698 21.864 131.378 23.256 131.114 25.632H138.002C137.882 23.28 136.61 21.864 134.642 21.864ZM148.145 33.24C144.473 33.24 142.001 30.576 142.001 26.568C142.001 22.8 144.569 20.04 148.073 20.04C151.865 20.04 154.385 23.112 153.953 27.24H144.473C144.665 29.832 145.961 31.344 148.097 31.344C149.897 31.344 151.145 30.36 151.553 28.704H153.953C153.329 31.536 151.145 33.24 148.145 33.24ZM148.025 21.864C146.081 21.864 144.761 23.256 144.497 25.632H151.385C151.265 23.28 149.993 21.864 148.025 21.864ZM155.384 26.64C155.384 22.776 157.592 20.04 161.024 20.04C162.728 20.04 164.216 20.904 165.104 22.464V15.768H167.528V33H165.272V30.72C164.36 32.328 162.824 33.24 161.024 33.24C157.592 33.24 155.384 30.456 155.384 26.64ZM157.904 26.64C157.904 29.472 159.392 31.08 161.504 31.08C163.568 31.08 165.104 29.4 165.104 26.592C165.104 23.736 163.52 22.176 161.504 22.176C159.392 22.176 157.904 23.76 157.904 26.64Z" fill="#080808"/>
<defs>
<radialGradient id="paint0_radial_1497_3555" cx="0" cy="0" r="1" gradientUnits="userSpaceOnUse" gradientTransform="translate(28.4748 19.2141) rotate(90) scale(19.3889 19.3623)">
<stop stop-color="#26D0CE" stop-opacity="0.1"/>
<stop offset="1" stop-color="#00B0AE"/>
</radialGradient>
</defs>
</svg>
