<svg xmlns="http://www.w3.org/2000/svg" xmlns:xlink="http://www.w3.org/1999/xlink" width="1112" zoomAndPan="magnify" viewBox="0 0 834 242.249991" height="323" preserveAspectRatio="xMidYMid meet" version="1.0"><defs><g/><clipPath id="6642eb0a15"><path d="M 1.285156 0 L 223.347656 0 L 223.347656 240.753906 L 1.285156 240.753906 Z M 1.285156 0 " clip-rule="nonzero"/></clipPath></defs><g clip-path="url(#6642eb0a15)"><path fill="#fe5d03" d="M 122.046875 0.945312 C 121.648438 1.257812 113.308594 15.40625 103.460938 32.351562 C 84.210938 65.574219 83.457031 66.859375 79.953125 70.671875 L 77.691406 73.15625 L 51.078125 73.15625 C 36.441406 73.113281 24.332031 73.203125 24.242188 73.335938 C 24.109375 73.46875 24.816406 74.976562 25.792969 76.660156 C 26.8125 78.390625 27.480469 79.855469 27.300781 79.988281 C 27.125 80.078125 24.863281 80.300781 22.246094 80.476562 C 16.65625 80.832031 16.613281 80.921875 19.273438 84.601562 L 21.046875 87.128906 L 17.808594 87.707031 C 13.328125 88.460938 12 88.859375 11.820312 89.390625 C 11.734375 89.660156 12.441406 90.855469 13.464844 92.054688 C 14.4375 93.207031 15.058594 94.316406 14.882812 94.492188 C 14.703125 94.625 13.195312 95.113281 11.46875 95.558594 C 6.898438 96.710938 6.632812 97.109375 9.027344 99.550781 C 10.09375 100.613281 10.847656 101.632812 10.710938 101.8125 C 10.535156 101.945312 9.160156 102.523438 7.609375 103.097656 C 3.703125 104.519531 3.4375 105.183594 5.921875 107.402344 C 7.03125 108.375 7.742188 109.265625 7.476562 109.351562 C 7.253906 109.484375 6.054688 110.105469 4.8125 110.773438 C 2.0625 112.28125 1.972656 113.210938 4.414062 115.074219 L 6.234375 116.449219 L 4.191406 117.78125 C 1.265625 119.644531 1.265625 120.707031 4.105469 122.4375 C 5.34375 123.234375 6.367188 123.902344 6.367188 123.945312 C 6.367188 123.988281 5.566406 124.566406 4.636719 125.230469 C 1.664062 127.316406 2.0625 129.179688 5.65625 130.554688 C 6.808594 131 7.695312 131.488281 7.695312 131.664062 C 7.695312 131.839844 6.988281 132.59375 6.144531 133.347656 C 3.4375 135.746094 4.148438 137.519531 8.363281 138.804688 C 9.335938 139.117188 10.269531 139.46875 10.492188 139.648438 C 10.667969 139.824219 10.09375 140.625 9.25 141.464844 C 6.542969 144.128906 7.296875 145.859375 11.6875 147.054688 C 13.285156 147.453125 14.660156 147.898438 14.75 147.941406 C 14.839844 148.03125 14.261719 148.828125 13.507812 149.761719 C 11.953125 151.625 11.734375 153.398438 12.929688 154.464844 C 13.328125 154.816406 15.105469 155.394531 16.789062 155.703125 C 18.519531 155.972656 19.984375 156.28125 20.070312 156.371094 C 20.160156 156.460938 19.71875 157.214844 19.097656 158.011719 C 17.410156 160.230469 17.234375 161.472656 18.34375 162.847656 C 19.140625 163.867188 19.671875 164.089844 22.777344 164.355469 C 24.730469 164.488281 26.328125 164.796875 26.328125 164.976562 C 26.328125 165.152344 25.839844 166.21875 25.21875 167.238281 C 23.886719 169.632812 23.84375 170.296875 25.039062 171.804688 L 25.925781 172.960938 L 81.105469 172.960938 L 83.148438 176.199219 C 84.253906 177.925781 93.128906 193.230469 102.886719 210.085938 C 112.597656 226.984375 120.71875 240.824219 120.894531 240.824219 C 121.027344 240.824219 121.914062 239.539062 122.800781 237.941406 C 123.6875 236.34375 124.441406 235.058594 124.53125 235.058594 C 124.621094 235.058594 125.417969 236.167969 126.304688 237.5 C 127.191406 238.828125 128.167969 239.9375 128.523438 239.9375 C 128.835938 239.9375 129.765625 238.472656 130.519531 236.699219 L 131.984375 233.507812 L 134.113281 235.945312 C 136.90625 239.09375 136.863281 239.140625 139.703125 231.109375 C 139.835938 230.667969 140.589844 231.15625 142.230469 232.753906 C 145.113281 235.589844 145.601562 235.371094 146.753906 230.84375 C 147.199219 229.113281 147.6875 227.519531 147.820312 227.207031 C 147.996094 226.851562 148.882812 227.339844 150.480469 228.671875 C 151.765625 229.734375 152.964844 230.625 153.1875 230.625 C 153.984375 230.625 154.5625 229.203125 155.269531 225.34375 L 156.070312 221.308594 L 158.507812 223.082031 C 162.410156 225.878906 163.164062 225.476562 163.609375 220.421875 C 164.097656 214.523438 163.832031 214.789062 167.378906 216.738281 C 171.683594 219.089844 171.992188 218.824219 172.171875 212.925781 C 172.214844 210.484375 172.347656 208.445312 172.4375 208.445312 C 172.523438 208.445312 173.898438 209.066406 175.496094 209.777344 C 180.6875 212.125 181.394531 211.59375 180.953125 205.785156 C 180.777344 203.566406 180.777344 201.792969 180.953125 201.792969 C 181.175781 201.792969 182.859375 202.324219 184.765625 202.988281 L 188.183594 204.230469 L 189.203125 203.253906 C 190.132812 202.28125 190.132812 202.234375 189.515625 198.464844 C 189.160156 196.378906 188.980469 194.695312 189.203125 194.695312 C 189.378906 194.695312 191.066406 195.09375 192.886719 195.625 C 198.296875 197.089844 199.449219 196.023438 197.984375 190.878906 C 197.496094 189.238281 197.1875 187.820312 197.277344 187.730469 C 197.363281 187.640625 199.050781 187.820312 200.957031 188.175781 C 203 188.527344 204.90625 188.617188 205.480469 188.441406 C 207.078125 187.820312 207.390625 186.132812 206.414062 183.472656 C 205.925781 182.230469 205.527344 180.988281 205.527344 180.765625 C 205.527344 180.542969 207.257812 180.5 209.429688 180.679688 C 212.976562 180.988281 213.378906 180.898438 214.308594 180.058594 C 215.507812 178.949219 215.550781 177.75 214.398438 175.222656 C 213.910156 174.15625 213.511719 173.226562 213.511719 173.136719 C 213.511719 173.046875 215.285156 172.960938 217.457031 172.960938 C 221.230469 172.960938 221.496094 172.914062 222.335938 171.804688 C 222.871094 171.140625 223.269531 170.296875 223.269531 169.898438 C 223.269531 169.5 216.484375 157.433594 208.1875 143.0625 C 199.894531 128.691406 193.105469 116.761719 193.105469 116.539062 C 193.105469 116.316406 198.605469 106.648438 205.304688 95.027344 C 212.046875 83.402344 217.371094 73.734375 217.191406 73.558594 C 216.96875 73.335938 214.574219 73.113281 211.824219 73.070312 L 206.855469 72.9375 L 208.71875 69.03125 C 209.828125 66.683594 210.40625 64.996094 210.140625 64.773438 C 209.917969 64.550781 207.832031 64.550781 205.128906 64.820312 C 202.597656 65.039062 200.46875 65.128906 200.382812 65.039062 C 200.292969 64.953125 200.867188 62.957031 201.710938 60.648438 C 202.730469 57.855469 203.085938 56.257812 202.820312 55.992188 C 202.511719 55.679688 200.914062 55.8125 198.074219 56.300781 C 195.722656 56.746094 193.683594 57.011719 193.59375 56.921875 C 193.460938 56.789062 195.015625 50.136719 195.546875 48.71875 C 195.636719 48.363281 195.589844 47.785156 195.367188 47.429688 C 195.015625 46.898438 194.394531 46.941406 190.890625 47.832031 C 188.671875 48.40625 186.808594 48.804688 186.675781 48.71875 C 186.585938 48.585938 186.851562 46.457031 187.25 43.972656 C 188.183594 38.027344 188.09375 37.9375 183.257812 39.578125 C 181.308594 40.246094 179.621094 40.734375 179.535156 40.644531 C 179.445312 40.554688 179.535156 38.558594 179.800781 36.207031 C 180.464844 29.910156 180.066406 29.464844 175.542969 31.460938 C 173.945312 32.214844 172.523438 32.792969 172.4375 32.792969 C 172.347656 32.792969 172.257812 30.753906 172.257812 28.222656 C 172.257812 22.058594 171.550781 21.4375 167.46875 23.878906 L 165.25 25.164062 L 164.984375 23.566406 C 164.851562 22.636719 164.71875 21.082031 164.71875 20.0625 C 164.71875 19.042969 164.539062 17.710938 164.273438 17.089844 C 163.699219 15.582031 161.835938 15.539062 159.839844 17.046875 C 158.996094 17.667969 158.199219 18.15625 158.019531 18.15625 C 157.84375 18.15625 157.445312 16.691406 157.179688 14.917969 C 156.335938 9.992188 154.828125 9.019531 151.855469 11.546875 C 151.011719 12.257812 150.257812 12.699219 150.214844 12.523438 C 148.261719 5.246094 147.242188 4.359375 144.136719 7.066406 L 142.628906 8.441406 L 141.875 6.179688 C 140.675781 2.542969 138.503906 1.65625 136.375 3.960938 L 135.132812 5.335938 L 134.335938 3.519531 C 132.960938 0.5 130.832031 0.015625 128.746094 2.230469 C 128.035156 2.984375 127.460938 3.429688 127.460938 3.207031 C 127.460938 2.941406 126.972656 2.230469 126.351562 1.566406 C 125.195312 0.324219 123.246094 0.015625 122.046875 0.945312 Z M 145.777344 15.316406 C 146 16.648438 145.421875 16.203125 144.980469 14.652344 C 144.800781 13.984375 144.847656 13.71875 145.113281 13.898438 C 145.335938 14.03125 145.644531 14.652344 145.777344 15.316406 Z M 153.273438 19.308594 C 153.40625 20.242188 153.40625 21.214844 153.1875 21.394531 C 152.699219 21.925781 152.386719 21.261719 152.03125 19.042969 C 151.765625 17.535156 151.855469 17.179688 152.34375 17.355469 C 152.699219 17.492188 153.097656 18.332031 153.273438 19.308594 Z M 128.125 22.945312 L 125.996094 25.03125 L 127.902344 22.679688 C 128.921875 21.394531 129.898438 20.460938 130.03125 20.59375 C 130.164062 20.726562 129.320312 21.792969 128.125 22.945312 Z M 160.902344 24.675781 C 161.171875 27.117188 161.125 27.46875 160.328125 27.871094 C 159.574219 28.3125 159.441406 28.136719 159.039062 25.785156 C 158.597656 23.476562 158.640625 23.210938 159.484375 22.457031 C 159.972656 22.015625 160.460938 21.75 160.503906 21.792969 C 160.550781 21.882812 160.726562 23.167969 160.902344 24.675781 Z M 133.359375 26.273438 C 133.492188 26.582031 132.425781 27.824219 130.832031 29.113281 C 122.136719 36.253906 122.136719 36.253906 127.460938 30.886719 C 130.253906 28.046875 132.691406 25.695312 132.824219 25.695312 C 133.003906 25.695312 133.226562 25.960938 133.359375 26.273438 Z M 154.871094 28.800781 C 154.871094 29.199219 154.738281 29.113281 154.515625 28.578125 C 154.292969 28.089844 154.160156 27.292969 154.160156 26.804688 C 154.160156 26.09375 154.25 26.140625 154.515625 27.027344 C 154.695312 27.648438 154.871094 28.445312 154.871094 28.800781 Z M 168.710938 31.242188 C 168.710938 34.433594 168.667969 34.566406 167.425781 35.1875 L 166.183594 35.855469 L 165.871094 33.8125 C 165.382812 30.085938 165.515625 29.332031 166.847656 28.625 C 167.511719 28.269531 168.179688 27.957031 168.398438 27.914062 C 168.578125 27.914062 168.710938 29.421875 168.710938 31.242188 Z M 136.507812 31.730469 C 136.640625 32.128906 136.773438 32.570312 136.773438 32.75 C 136.773438 32.972656 133.226562 35.585938 128.921875 38.605469 C 124.574219 41.574219 120.316406 44.546875 119.476562 45.167969 C 118.632812 45.789062 118.144531 46.054688 118.367188 45.746094 C 119.121094 44.902344 135.664062 31.0625 135.929688 31.019531 C 136.109375 31.019531 136.375 31.328125 136.507812 31.730469 Z M 161.789062 34.65625 C 161.925781 36.164062 161.878906 37.582031 161.65625 37.804688 C 161.214844 38.25 160.105469 33.015625 160.503906 32.351562 C 161.125 31.375 161.480469 32.039062 161.789062 34.65625 Z M 176.429688 37.316406 C 175.984375 42.019531 175.851562 42.464844 174.742188 42.730469 C 174.167969 42.863281 173.367188 43.128906 172.96875 43.261719 C 172.347656 43.484375 172.257812 43.085938 172.257812 40.15625 L 172.257812 36.785156 L 173.945312 35.941406 C 176.472656 34.566406 176.695312 34.699219 176.429688 37.316406 Z M 140.101562 37.9375 C 140.5 38.558594 140.765625 39.136719 140.675781 39.226562 C 140.542969 39.359375 114.640625 54.261719 113.488281 54.882812 C 113.175781 55.015625 113.175781 54.925781 113.488281 54.617188 C 114.109375 53.996094 138.726562 36.828125 139.035156 36.785156 C 139.214844 36.785156 139.65625 37.316406 140.101562 37.9375 Z M 168.710938 41.664062 C 168.710938 44.058594 168.53125 44.859375 168.046875 45.078125 C 167.070312 45.433594 167.023438 45.300781 166.671875 42.328125 C 166.402344 40.113281 166.492188 39.667969 167.15625 39.179688 C 168.53125 38.160156 168.710938 38.425781 168.710938 41.664062 Z M 162.367188 43.304688 C 162.234375 43.75 162.144531 43.484375 162.144531 42.773438 C 162.144531 42.019531 162.234375 41.707031 162.367188 41.976562 C 162.457031 42.285156 162.457031 42.90625 162.367188 43.304688 Z M 184.058594 45.835938 C 183.660156 47.695312 183.257812 49.382812 183.171875 49.605469 C 182.90625 50.003906 178.914062 51.113281 178.644531 50.847656 C 178.558594 50.757812 178.644531 49.207031 178.824219 47.386719 L 179.132812 44.105469 L 181.796875 43.171875 C 183.257812 42.640625 184.5 42.242188 184.589844 42.328125 C 184.632812 42.375 184.414062 43.925781 184.058594 45.835938 Z M 143.605469 44.105469 C 144.09375 44.945312 144.359375 45.746094 144.226562 45.878906 C 143.828125 46.277344 107.808594 62.957031 107.632812 62.824219 C 107.5 62.691406 142.097656 42.597656 142.539062 42.597656 C 142.671875 42.550781 143.160156 43.261719 143.605469 44.105469 Z M 175.628906 46.367188 C 175.496094 46.765625 175.363281 48.007812 175.363281 49.117188 C 175.363281 51.601562 175.097656 52.089844 173.5 52.488281 L 172.257812 52.753906 L 172.257812 49.691406 C 172.257812 46.722656 172.304688 46.589844 173.5 46.1875 C 175.320312 45.523438 175.941406 45.566406 175.628906 46.367188 Z M 168.488281 53.597656 C 168.265625 54.171875 168.179688 54.21875 167.824219 53.640625 C 167.15625 52.621094 167.292969 48.40625 167.957031 48.183594 C 168.53125 48.007812 168.976562 52.308594 168.488281 53.597656 Z M 147.332031 50.492188 L 148.304688 52.222656 L 145.734375 53.152344 C 134.511719 57.277344 107.71875 66.859375 107.632812 66.816406 C 107.542969 66.683594 145.644531 48.894531 146.132812 48.804688 C 146.265625 48.761719 146.796875 49.515625 147.332031 50.492188 Z M 192.574219 50.625 C 192.441406 50.933594 191.996094 52.578125 191.554688 54.21875 C 190.933594 56.480469 190.488281 57.367188 189.824219 57.632812 C 188.804688 57.988281 184.679688 58.652344 184.679688 58.429688 C 184.679688 57.898438 185.964844 51.777344 186.054688 51.6875 C 186.410156 51.46875 191.15625 50.179688 191.953125 50.136719 C 192.398438 50.09375 192.664062 50.3125 192.574219 50.625 Z M 182.726562 53.417969 C 182.59375 53.773438 182.371094 55.058594 182.195312 56.257812 C 181.839844 59.050781 181.707031 59.230469 179.535156 59.539062 L 177.714844 59.851562 L 177.890625 57.277344 C 178.160156 53.863281 178.203125 53.730469 179.886719 53.242188 C 182.152344 52.621094 183.039062 52.664062 182.726562 53.417969 Z M 174.566406 57.855469 C 174.300781 60.160156 174.121094 60.515625 173.234375 60.648438 C 172.257812 60.78125 172.214844 60.695312 172.347656 58.03125 C 172.480469 55.460938 172.570312 55.191406 173.589844 54.972656 C 174.210938 54.792969 174.742188 54.792969 174.789062 54.925781 C 174.875 55.058594 174.789062 56.390625 174.566406 57.855469 Z M 150.746094 56.523438 C 151.234375 57.367188 151.5 58.121094 151.410156 58.210938 C 151.058594 58.519531 112.289062 68.765625 112.113281 68.589844 C 111.890625 68.367188 148.261719 55.105469 149.238281 55.015625 C 149.636719 55.015625 150.300781 55.679688 150.746094 56.523438 Z M 168.667969 58.832031 C 168.621094 61.359375 168.621094 61.402344 168.222656 59.628906 C 167.734375 57.1875 167.734375 56.300781 168.265625 56.300781 C 168.53125 56.300781 168.667969 57.410156 168.667969 58.832031 Z M 199.359375 61.402344 C 198.695312 63.222656 197.984375 64.90625 197.71875 65.128906 C 197.496094 65.351562 195.855469 65.617188 194.082031 65.792969 L 190.890625 66.0625 L 191.15625 64.863281 C 191.332031 64.152344 191.777344 62.644531 192.175781 61.402344 L 192.886719 59.230469 L 195.546875 58.699219 C 197.011719 58.429688 198.738281 58.164062 199.40625 58.121094 L 200.601562 58.078125 Z M 189.824219 60.605469 C 189.734375 61.046875 189.292969 62.554688 188.9375 63.929688 L 188.183594 66.503906 L 185.789062 66.503906 C 184.457031 66.503906 183.347656 66.328125 183.347656 66.148438 C 183.347656 65.925781 183.570312 64.640625 183.835938 63.265625 C 184.324219 60.828125 184.414062 60.738281 186.1875 60.339844 C 189.203125 59.671875 190.089844 59.761719 189.824219 60.605469 Z M 154.78125 63.753906 C 154.515625 63.976562 116.679688 70.539062 116.28125 70.40625 C 116.105469 70.320312 124.265625 68.058594 134.421875 65.351562 L 152.964844 60.425781 L 153.941406 61.980469 C 154.472656 62.867188 154.871094 63.664062 154.78125 63.753906 Z M 180.953125 63.265625 C 180.421875 66.769531 180.332031 66.949219 178.644531 66.949219 C 177.226562 66.949219 177.136719 66.859375 177.183594 65.484375 C 177.269531 62.246094 177.804688 61.667969 180.863281 61.226562 C 181.042969 61.226562 181.085938 62.113281 180.953125 63.265625 Z M 174.035156 64.242188 C 174.035156 66.414062 173.679688 67.390625 172.878906 67.390625 C 172.4375 67.390625 172.257812 66.769531 172.257812 65.261719 C 172.257812 63 172.480469 62.511719 173.457031 62.511719 C 173.855469 62.511719 174.035156 63.089844 174.035156 64.242188 Z M 156.867188 67.035156 C 157.3125 67.789062 157.488281 68.542969 157.3125 68.722656 C 157 68.988281 123.023438 71.960938 121.914062 71.78125 C 121.515625 71.738281 154.382812 65.792969 155.625 65.660156 C 155.890625 65.660156 156.421875 66.238281 156.867188 67.035156 Z M 208.1875 66.238281 C 208.1875 66.371094 207.523438 67.96875 206.679688 69.785156 L 205.128906 73.15625 L 197.144531 73.15625 L 198.25 70.140625 C 198.871094 68.5 199.492188 67.082031 199.582031 66.992188 C 199.9375 66.59375 208.1875 65.925781 208.1875 66.238281 Z M 197.097656 67.257812 C 197.097656 67.480469 196.65625 68.855469 196.121094 70.363281 L 195.101562 73.15625 L 189.027344 73.15625 L 189.335938 71.695312 C 189.515625 70.941406 189.914062 69.652344 190.222656 68.855469 C 190.753906 67.570312 191.023438 67.4375 193.195312 67.257812 C 194.480469 67.167969 195.902344 67.082031 196.34375 67.035156 C 196.742188 66.992188 197.097656 67.082031 197.097656 67.257812 Z M 187.785156 68.191406 C 187.785156 68.410156 187.472656 69.609375 187.117188 70.851562 L 186.410156 73.15625 L 184.191406 73.15625 C 182.285156 73.15625 181.972656 73.070312 182.195312 72.359375 C 182.328125 71.960938 182.550781 70.851562 182.683594 69.964844 C 182.949219 68.632812 183.214844 68.277344 184.191406 68.144531 C 186.363281 67.835938 187.785156 67.835938 187.785156 68.191406 Z M 179.800781 69.253906 C 179.800781 69.566406 179.667969 70.585938 179.535156 71.472656 C 179.265625 72.980469 179.089844 73.15625 177.980469 73.15625 C 176.785156 73.15625 176.695312 73.070312 176.695312 71.25 C 176.695312 70.1875 176.828125 69.164062 177.003906 69.03125 C 177.539062 68.5 179.800781 68.722656 179.800781 69.253906 Z M 173.589844 70.140625 C 173.589844 71.648438 173.101562 73.15625 172.660156 73.15625 C 172.4375 73.15625 172.257812 72.269531 172.257812 71.160156 C 172.257812 69.699219 172.4375 69.164062 172.925781 69.164062 C 173.324219 69.164062 173.589844 69.566406 173.589844 70.140625 Z M 159.308594 71.605469 C 159.617188 72.226562 159.839844 72.847656 159.839844 72.9375 C 159.839844 73.070312 152.785156 73.113281 144.226562 73.070312 C 135.621094 73.070312 129.1875 72.9375 129.898438 72.847656 C 132.78125 72.449219 154.429688 70.585938 156.558594 70.539062 C 158.554688 70.496094 158.863281 70.628906 159.308594 71.605469 Z M 75.695312 75.019531 C 74.761719 75.90625 73.34375 76.085938 52.230469 77.902344 C 39.855469 78.96875 29.476562 79.765625 29.164062 79.632812 C 28.675781 79.457031 25.882812 74.933594 25.882812 74.3125 C 25.882812 74.179688 37.328125 74.042969 51.253906 74.042969 L 76.625 74.042969 Z M 152.296875 74.445312 L 160.949219 74.710938 L 162.8125 80.253906 C 164.894531 86.464844 167.023438 96.488281 167.867188 104.207031 C 168.621094 110.683594 168.621094 128.160156 167.910156 134.8125 C 166.804688 145.015625 164.808594 154.949219 162.058594 163.734375 L 161.125 166.75 L 140.1875 166.75 C 117.964844 166.75 109.09375 166.261719 98.847656 164.53125 C 88.691406 162.757812 75.960938 159.074219 74.007812 157.257812 C 73.433594 156.769531 69.175781 149.71875 64.515625 141.601562 L 56.089844 126.875 L 69.929688 102.921875 L 83.769531 78.925781 L 85.984375 78.257812 C 91.132812 76.660156 100.179688 75.332031 112.597656 74.355469 C 115.75 74.089844 143.382812 74.132812 152.296875 74.445312 Z M 172.878906 77.460938 C 172.480469 81.496094 172.257812 81.542969 172.257812 77.683594 C 172.257812 75.773438 172.4375 74.488281 172.703125 74.488281 C 173.011719 74.488281 173.058594 75.554688 172.878906 77.460938 Z M 178.914062 74.753906 C 178.914062 75.375 176.605469 87.574219 176.472656 87.707031 C 176.382812 87.796875 176.117188 87.484375 175.851562 87.042969 C 175.542969 86.421875 175.585938 84.335938 175.894531 80.34375 L 176.382812 74.488281 L 177.671875 74.488281 C 178.335938 74.488281 178.914062 74.621094 178.914062 74.753906 Z M 186.007812 74.753906 C 186.007812 75.285156 180.6875 94.582031 180.507812 94.757812 C 180.375 94.890625 179.933594 94.316406 179.535156 93.429688 C 178.824219 91.964844 178.867188 91.566406 180.199219 83.757812 C 180.996094 79.277344 181.707031 75.332031 181.796875 75.019531 C 181.972656 74.488281 186.007812 74.222656 186.007812 74.753906 Z M 194.4375 74.710938 C 194.4375 75.019531 185.078125 100.792969 184.722656 101.414062 C 184.546875 101.769531 184.011719 101.234375 183.347656 100.039062 L 182.285156 98.085938 L 185.300781 86.820312 C 186.941406 80.652344 188.359375 75.332031 188.449219 75.019531 C 188.582031 74.664062 189.601562 74.488281 191.554688 74.488281 C 193.152344 74.488281 194.4375 74.578125 194.4375 74.710938 Z M 204.195312 74.800781 C 204.195312 75.464844 188.539062 108.597656 188.273438 108.464844 C 188.136719 108.332031 187.519531 107.355469 186.941406 106.292969 L 185.875 104.296875 L 190.402344 91.742188 C 192.929688 84.824219 195.367188 78.082031 195.855469 76.796875 L 196.699219 74.488281 L 200.46875 74.488281 C 202.511719 74.488281 204.195312 74.621094 204.195312 74.800781 Z M 214.085938 77.503906 C 213.15625 79.191406 207.921875 88.371094 202.421875 97.910156 C 194.96875 110.816406 192.308594 115.074219 191.953125 114.71875 C 191.6875 114.410156 190.976562 113.34375 190.445312 112.324219 L 189.425781 110.460938 L 197.765625 92.453125 L 206.148438 74.488281 L 215.816406 74.488281 Z M 72.011719 78.035156 C 71.4375 78.347656 33.554688 85.132812 32.3125 85.132812 C 31.914062 85.132812 29.699219 81.585938 29.964844 81.363281 C 30.050781 81.273438 69.53125 77.816406 72.011719 77.683594 C 72.589844 77.636719 72.589844 77.683594 72.011719 78.035156 Z M 29.652344 83.226562 C 30.140625 84.15625 30.585938 85.046875 30.671875 85.222656 C 30.761719 85.355469 29.34375 85.710938 27.566406 86.019531 C 25.792969 86.289062 24.019531 86.640625 23.621094 86.730469 C 23.132812 86.863281 22.335938 86.199219 21.269531 84.734375 C 20.382812 83.539062 19.671875 82.472656 19.671875 82.339844 C 19.671875 82.074219 22.335938 81.808594 26.59375 81.675781 C 28.765625 81.585938 28.855469 81.628906 29.652344 83.226562 Z M 59.550781 82.648438 C 59.460938 82.738281 53.914062 84.292969 47.21875 86.066406 C 34.84375 89.347656 33.867188 89.4375 33.511719 87.664062 C 33.421875 87.175781 34.089844 86.863281 36.394531 86.464844 C 38.035156 86.199219 43.714844 85.222656 48.949219 84.246094 C 58.664062 82.515625 59.902344 82.339844 59.550781 82.648438 Z M 32.535156 88.195312 C 33.289062 89.660156 33.070312 89.835938 29.609375 90.722656 L 26.238281 91.566406 L 25.171875 90.234375 C 24.597656 89.523438 24.242188 88.859375 24.332031 88.726562 C 24.550781 88.550781 29.964844 87.484375 31.292969 87.394531 C 31.738281 87.394531 32.269531 87.75 32.535156 88.195312 Z M 46.6875 88.902344 C 46.464844 89.082031 36.617188 92.675781 36.261719 92.675781 C 36.171875 92.675781 36.085938 92.410156 36.085938 92.097656 C 36.085938 91.699219 37.859375 90.988281 41.097656 90.144531 C 46.285156 88.726562 46.996094 88.550781 46.6875 88.902344 Z M 23.398438 90.5 C 23.84375 91.253906 24.109375 91.964844 23.976562 92.054688 C 23.84375 92.1875 22.335938 92.675781 20.648438 93.117188 L 17.5 93.917969 L 16.125 92.140625 C 15.324219 91.167969 14.792969 90.324219 14.839844 90.277344 C 15.058594 90.058594 20.117188 89.257812 21.445312 89.171875 C 22.289062 89.125 22.820312 89.480469 23.398438 90.5 Z M 34.84375 93.164062 C 34.664062 93.296875 33.246094 93.871094 31.695312 94.40625 C 29.121094 95.335938 28.808594 95.378906 28.1875 94.714844 C 27.789062 94.359375 27.566406 93.917969 27.703125 93.828125 C 27.789062 93.695312 29.386719 93.25 31.207031 92.761719 C 33.511719 92.1875 34.621094 92.097656 34.84375 92.410156 C 35.019531 92.675781 35.019531 93.03125 34.84375 93.164062 Z M 26.726562 95.246094 C 27.125 95.957031 26.8125 96.179688 24.285156 97.109375 C 21.535156 98.085938 21.402344 98.085938 20.558594 97.332031 C 20.070312 96.886719 19.671875 96.402344 19.671875 96.222656 C 19.671875 95.824219 23.929688 94.539062 25.304688 94.492188 C 25.839844 94.449219 26.503906 94.804688 26.726562 95.246094 Z M 33.910156 97.15625 C 32.359375 97.863281 30.984375 98.351562 30.851562 98.21875 C 30.539062 97.910156 30.671875 97.820312 33.421875 96.753906 C 36.925781 95.425781 37.238281 95.644531 33.910156 97.15625 Z M 17.988281 97.421875 C 18.429688 97.820312 18.785156 98.351562 18.785156 98.617188 C 18.785156 99.105469 15.015625 100.660156 13.816406 100.660156 C 13.152344 100.660156 10.933594 98.574219 11.289062 98.261719 C 11.554688 97.996094 15.8125 96.753906 16.523438 96.710938 C 16.878906 96.667969 17.542969 96.976562 17.988281 97.421875 Z M 29.210938 98.882812 C 29.34375 99.105469 28.367188 99.816406 26.949219 100.4375 C 24.0625 101.722656 23.664062 101.769531 23.664062 100.925781 C 23.664062 100.613281 24.730469 99.90625 26.015625 99.417969 C 28.855469 98.351562 28.855469 98.351562 29.210938 98.882812 Z M 21.800781 102.078125 C 22.15625 102.523438 21.667969 102.921875 19.804688 103.71875 C 17.589844 104.695312 17.320312 104.738281 16.65625 104.074219 C 15.8125 103.230469 15.8125 103.230469 18.121094 102.300781 C 20.292969 101.414062 21.179688 101.367188 21.800781 102.078125 Z M 29.429688 103.097656 C 29.429688 103.1875 28.855469 103.585938 28.101562 103.984375 C 26.414062 104.828125 26.328125 104.472656 28.011719 103.585938 C 29.386719 102.832031 29.429688 102.789062 29.429688 103.097656 Z M 14.484375 105.003906 C 15.191406 105.757812 15.105469 105.847656 13.195312 106.824219 C 11.289062 107.710938 11.066406 107.753906 10.09375 107.089844 C 8.582031 106.113281 8.761719 105.714844 10.933594 104.960938 C 13.417969 104.074219 13.640625 104.074219 14.484375 105.003906 Z M 23.441406 106.648438 C 21.847656 107.621094 20.117188 108.109375 20.117188 107.535156 C 20.117188 107.132812 23.441406 105.582031 24.332031 105.582031 C 24.953125 105.582031 24.730469 105.847656 23.441406 106.648438 Z M 18.253906 109.175781 C 18.121094 109.484375 17.410156 110.105469 16.613281 110.550781 C 15.457031 111.261719 15.105469 111.304688 14.527344 110.816406 C 13.90625 110.328125 14.039062 110.152344 15.324219 109.484375 C 17.054688 108.554688 18.476562 108.421875 18.253906 109.175781 Z M 27.65625 108.953125 C 27.65625 109.484375 24.550781 111.394531 23.976562 111.171875 C 23.710938 111.082031 24.375 110.503906 25.4375 109.839844 C 27.65625 108.511719 27.65625 108.511719 27.65625 108.953125 Z M 11.777344 112.234375 C 12.664062 112.722656 12.664062 112.769531 11.421875 113.566406 C 9.871094 114.585938 9.472656 114.585938 8.363281 113.789062 C 7.5625 113.210938 7.609375 113.167969 8.851562 112.5 C 10.402344 111.613281 10.625 111.613281 11.777344 112.234375 Z M 21.890625 112.855469 C 21.757812 113.65625 19.449219 114.851562 18.828125 114.410156 C 18.34375 114.144531 18.5625 113.832031 19.71875 113.121094 C 21.269531 112.191406 22.023438 112.101562 21.890625 112.855469 Z M 29.652344 113.742188 C 28.277344 114.851562 27.65625 115.117188 27.65625 114.496094 C 27.65625 114.097656 29.917969 112.679688 30.539062 112.636719 C 30.804688 112.636719 30.40625 113.121094 29.652344 113.742188 Z M 16.433594 116.492188 C 16.746094 117.335938 14.484375 118.269531 13.773438 117.558594 C 13.375 117.113281 13.417969 116.894531 14.128906 116.359375 C 15.105469 115.605469 16.167969 115.695312 16.433594 116.492188 Z M 25.882812 116.628906 C 25.882812 117.292969 23.753906 118.488281 23.175781 118.136719 C 22.820312 117.914062 23 117.558594 23.710938 117.027344 C 24.863281 116.140625 25.882812 115.917969 25.882812 116.628906 Z M 32.980469 117.734375 C 32.402344 118.355469 31.828125 118.757812 31.738281 118.625 C 31.425781 118.3125 33.023438 116.628906 33.554688 116.628906 C 33.824219 116.628906 33.554688 117.113281 32.980469 117.734375 Z M 11.15625 119.863281 C 11.601562 120.21875 11.511719 120.441406 10.800781 120.929688 C 10.003906 121.507812 9.738281 121.507812 8.714844 120.839844 L 7.5625 120.042969 L 8.628906 119.511719 C 9.648438 118.933594 10.003906 118.976562 11.15625 119.863281 Z M 21.136719 120.042969 C 21.3125 120.175781 21.136719 120.664062 20.738281 121.105469 C 20.160156 121.773438 19.804688 121.816406 19.097656 121.417969 C 18.210938 120.972656 18.210938 120.929688 19.007812 120.351562 C 19.9375 119.6875 20.691406 119.554688 21.136719 120.042969 Z M 29.875 120.53125 C 29.875 121.285156 28.1875 122.480469 27.878906 121.949219 C 27.703125 121.683594 27.921875 121.152344 28.367188 120.839844 C 29.34375 120.132812 29.875 120 29.875 120.53125 Z M 36.972656 121.90625 C 36.527344 122.792969 35.640625 123.191406 35.640625 122.527344 C 35.640625 122.082031 37.105469 120.574219 37.28125 120.796875 C 37.414062 120.886719 37.28125 121.417969 36.972656 121.90625 Z M 44.070312 122.570312 C 44.070312 122.660156 43.714844 123.015625 43.316406 123.324219 C 42.605469 123.902344 42.5625 123.855469 43.136719 123.148438 C 43.714844 122.4375 44.070312 122.214844 44.070312 122.570312 Z M 17.011719 124.125 C 17.011719 124.832031 15.769531 125.011719 14.925781 124.390625 C 14.261719 123.855469 14.21875 123.679688 14.75 123.324219 C 15.457031 122.882812 17.011719 123.457031 17.011719 124.125 Z M 25.792969 124.125 C 26.238281 124.390625 26.238281 124.566406 25.660156 125.054688 C 24.863281 125.71875 23.796875 125.054688 24.285156 124.210938 C 24.640625 123.636719 24.996094 123.589844 25.792969 124.125 Z M 34.308594 125.011719 C 34.308594 125.230469 34.042969 125.632812 33.691406 125.898438 C 32.980469 126.472656 32.269531 125.808594 32.757812 125.054688 C 33.113281 124.523438 34.308594 124.476562 34.308594 125.011719 Z M 41.40625 126.386719 C 40.917969 127.273438 40.078125 127.628906 40.078125 126.917969 C 40.078125 126.429688 41.050781 125.5 41.496094 125.5 C 41.71875 125.5 41.671875 125.898438 41.40625 126.386719 Z M 11.953125 127.007812 C 12.621094 127.496094 12.664062 127.761719 12.265625 128.203125 C 11.46875 129.003906 8.804688 127.847656 9.515625 127.007812 C 10.179688 126.207031 10.847656 126.207031 11.953125 127.007812 Z M 22.511719 128.25 C 22.378906 128.425781 21.890625 128.382812 21.402344 128.160156 C 20.914062 127.894531 20.648438 127.496094 20.78125 127.273438 C 20.960938 127.007812 21.402344 127.050781 21.890625 127.359375 C 22.335938 127.671875 22.601562 128.070312 22.511719 128.25 Z M 47.882812 128.25 C 47.484375 128.78125 47.171875 129.089844 47.171875 128.914062 C 47.171875 128.425781 48.238281 126.828125 48.414062 127.050781 C 48.503906 127.140625 48.28125 127.671875 47.882812 128.25 Z M 30.9375 129.136719 C 30.804688 129.355469 30.40625 129.3125 30.050781 129.003906 C 29.742188 128.738281 29.5625 128.335938 29.699219 128.070312 C 29.832031 127.847656 30.230469 127.894531 30.585938 128.203125 C 30.894531 128.46875 31.074219 128.871094 30.9375 129.136719 Z M 63.585938 142.132812 C 67.800781 149.449219 71.347656 155.570312 71.4375 155.75 C 71.527344 155.972656 71.527344 156.105469 71.4375 156.105469 C 71.304688 156.105469 67.265625 150.472656 62.476562 143.597656 L 53.695312 131.085938 L 54.492188 129.625 C 54.9375 128.824219 55.46875 128.292969 55.644531 128.46875 C 55.777344 128.691406 59.371094 134.8125 63.585938 142.132812 Z M 38.746094 129.710938 C 38.746094 130.066406 38.4375 130.378906 38.082031 130.378906 C 37.679688 130.378906 37.546875 130.113281 37.679688 129.710938 C 37.859375 129.355469 38.125 129.046875 38.347656 129.046875 C 38.570312 129.046875 38.746094 129.355469 38.746094 129.710938 Z M 18.785156 131.042969 C 19.230469 131.574219 19.230469 131.707031 18.652344 131.707031 C 17.632812 131.707031 16.566406 131.21875 16.566406 130.777344 C 16.566406 130.113281 18.210938 130.332031 18.785156 131.042969 Z M 46.019531 131.488281 C 45.753906 132.195312 44.957031 132.417969 44.957031 131.796875 C 44.957031 131.308594 45.445312 130.820312 45.886719 130.820312 C 46.109375 130.820312 46.152344 131.132812 46.019531 131.488281 Z M 57.421875 139.117188 C 64.917969 149.851562 65.09375 150.160156 64.164062 149.230469 C 63.675781 148.742188 60.65625 145.238281 57.507812 141.464844 C 52.363281 135.34375 51.785156 134.503906 52.1875 133.570312 C 52.453125 133.039062 52.675781 132.59375 52.761719 132.59375 C 52.808594 132.59375 54.9375 135.523438 57.421875 139.117188 Z M 204.816406 150.027344 C 209.828125 158.722656 213.953125 166.085938 213.953125 166.351562 C 213.953125 166.617188 213.199219 166.75 212.136719 166.660156 L 210.316406 166.527344 L 203.707031 152.332031 C 195.058594 133.792969 194.746094 133.171875 195.234375 133.703125 C 195.457031 133.925781 199.761719 141.289062 204.816406 150.027344 Z M 14.128906 134.457031 C 16.167969 135.390625 15.28125 136.410156 13.0625 135.65625 C 11.289062 135.035156 11.246094 134.589844 12.886719 133.96875 C 12.929688 133.925781 13.507812 134.148438 14.128906 134.457031 Z M 25.839844 135.078125 C 26.460938 135.613281 24.996094 135.125 24.285156 134.546875 C 23.488281 133.925781 23.488281 133.925781 24.550781 134.414062 C 25.171875 134.679688 25.75 134.992188 25.839844 135.078125 Z M 44.070312 134.859375 C 44.070312 135.078125 43.890625 135.257812 43.625 135.257812 C 43.402344 135.257812 43.183594 134.945312 43.183594 134.546875 C 43.183594 134.191406 43.402344 134.015625 43.625 134.148438 C 43.890625 134.28125 44.070312 134.589844 44.070312 134.859375 Z M 195.988281 149.894531 C 199.582031 157.566406 202.820312 164.53125 203.132812 165.285156 L 203.753906 166.75 L 200.335938 166.75 L 194.878906 151.757812 C 188.359375 133.792969 188.9375 135.433594 189.203125 135.699219 C 189.335938 135.832031 192.398438 142.222656 195.988281 149.894531 Z M 53.5625 139.78125 C 54.9375 141.378906 56.046875 142.886719 56.046875 143.0625 C 56.046875 143.285156 54.757812 142.132812 53.160156 140.578125 C 51.566406 139.027344 50.277344 137.429688 50.277344 137.121094 C 50.277344 136.144531 50.898438 136.632812 53.5625 139.78125 Z M 21.890625 138.140625 C 23.089844 138.804688 22.777344 138.984375 21.136719 138.539062 C 20.558594 138.363281 20.117188 138.09375 20.117188 137.875 C 20.117188 137.339844 20.605469 137.386719 21.890625 138.140625 Z M 188.003906 149.007812 C 189.648438 153.53125 191.730469 159.34375 192.707031 161.960938 L 194.394531 166.75 L 191.507812 166.75 L 188.003906 153.753906 C 186.097656 146.65625 184.457031 140.402344 184.367188 139.914062 L 184.191406 139.027344 L 184.589844 139.914062 C 184.8125 140.402344 186.363281 144.484375 188.003906 149.007812 Z M 18.164062 142.355469 C 18.917969 142.664062 19.230469 142.976562 18.964844 143.242188 C 18.429688 143.773438 15.105469 142.929688 15.457031 142.308594 C 15.8125 141.777344 16.65625 141.777344 18.164062 142.355469 Z M 25.75 145.28125 C 25.617188 145.414062 25.21875 145.457031 24.90625 145.324219 C 24.550781 145.191406 24.683594 145.058594 25.171875 145.058594 C 25.660156 145.015625 25.925781 145.148438 25.75 145.28125 Z M 183.347656 155.75 C 184.8125 161.292969 186.007812 165.996094 186.007812 166.261719 C 186.007812 166.527344 185.523438 166.75 184.902344 166.75 C 184.28125 166.75 183.792969 166.574219 183.792969 166.394531 C 183.792969 166.21875 182.992188 161.558594 182.015625 156.105469 C 180.421875 147.1875 179.976562 143.90625 180.464844 145.238281 C 180.554688 145.457031 181.839844 150.203125 183.347656 155.75 Z M 24.019531 150.558594 C 24.550781 151.09375 23.621094 151.3125 21.890625 151.003906 C 20.472656 150.78125 20.160156 150.558594 20.558594 150.117188 C 20.914062 149.671875 21.445312 149.628906 22.421875 149.9375 C 23.175781 150.117188 23.886719 150.425781 24.019531 150.558594 Z M 178.867188 165.507812 C 178.914062 166.351562 178.691406 166.75 178.246094 166.75 C 177.890625 166.75 177.582031 166.707031 177.582031 166.617188 C 177.226562 163.824219 176.296875 152.511719 176.296875 151.890625 C 176.339844 150.738281 178.824219 163.910156 178.867188 165.507812 Z M 29.5625 157.878906 C 29.964844 157.878906 30.320312 158.054688 30.320312 158.320312 C 30.320312 158.542969 29.429688 158.765625 28.324219 158.765625 C 26.460938 158.765625 25.925781 158.457031 26.636719 157.699219 C 26.8125 157.523438 27.390625 157.480469 27.878906 157.613281 C 28.367188 157.746094 29.121094 157.878906 29.5625 157.878906 Z M 173.101562 164.84375 C 173.144531 165.90625 172.96875 166.75 172.703125 166.75 C 172.4375 166.75 172.304688 164.976562 172.304688 162.179688 C 172.390625 157.96875 172.390625 157.835938 172.703125 160.316406 C 172.878906 161.78125 173.058594 163.824219 173.101562 164.84375 Z M 44.734375 166.304688 C 46.820312 166.574219 45.886719 166.660156 40.429688 166.707031 C 34.265625 166.75 33.421875 166.660156 33.421875 166.039062 C 33.421875 165.417969 33.957031 165.375 37.769531 165.640625 C 40.121094 165.816406 43.269531 166.085938 44.734375 166.304688 Z M 196.121094 173.269531 C 195.679688 173.359375 194.878906 173.359375 194.347656 173.269531 C 193.773438 173.179688 194.125 173.09375 195.101562 173.09375 C 196.078125 173.046875 196.523438 173.136719 196.121094 173.269531 Z M 207.035156 173.667969 C 207.257812 174.203125 206.945312 174.335938 205.214844 174.203125 C 202.464844 174.023438 202.066406 172.960938 204.773438 172.960938 C 206.148438 172.960938 206.855469 173.179688 207.035156 173.667969 Z M 180.15625 178.105469 C 181.617188 178.503906 181.351562 179.035156 179.800781 178.816406 C 179.089844 178.726562 178.46875 178.460938 178.46875 178.238281 C 178.46875 177.792969 178.78125 177.75 180.15625 178.105469 Z M 189.691406 179.65625 C 189.914062 180.5 189.824219 180.542969 188.316406 180.277344 C 186.410156 179.921875 186.007812 179.703125 186.007812 179.125 C 186.007812 178.902344 186.761719 178.726562 187.738281 178.726562 C 189.113281 178.726562 189.515625 178.902344 189.691406 179.65625 Z M 121.472656 190.257812 C 131.71875 196.15625 140.542969 201.257812 141.121094 201.613281 L 142.097656 202.28125 L 141.121094 204.007812 C 140.542969 204.984375 139.878906 205.695312 139.65625 205.605469 C 138.949219 205.339844 103.375 180.457031 102.621094 179.703125 C 101.777344 178.859375 100.003906 177.882812 121.472656 190.257812 Z M 199.539062 180.945312 C 200.203125 182.230469 200.203125 182.273438 199.226562 182.230469 C 196.921875 182.097656 195.636719 181.566406 195.28125 180.589844 C 194.925781 179.65625 195.015625 179.613281 196.875 179.613281 C 198.605469 179.613281 198.917969 179.746094 199.539062 180.945312 Z M 129.898438 188.484375 C 138.460938 192.433594 145.46875 195.757812 145.554688 195.804688 C 145.644531 195.890625 145.378906 196.558594 144.980469 197.355469 C 144.449219 198.375 144.046875 198.6875 143.515625 198.464844 C 142.40625 198.066406 111.933594 180.457031 111.933594 180.234375 C 111.933594 180.101562 112.464844 180.324219 113.175781 180.679688 C 113.839844 180.988281 121.382812 184.535156 129.898438 188.484375 Z M 120.582031 196.46875 C 130.121094 203.121094 137.972656 208.667969 138.058594 208.753906 C 138.328125 208.976562 136.507812 212.171875 136.019531 212.304688 C 135.664062 212.4375 101.644531 184.183594 99.734375 182.1875 C 99.25 181.652344 99.871094 181.964844 101.066406 182.808594 C 102.308594 183.648438 111.089844 189.816406 120.582031 196.46875 Z M 137.527344 185.824219 C 148.882812 189.902344 149.0625 190.035156 148.617188 191.011719 C 148.351562 191.589844 147.996094 192.03125 147.820312 192.03125 C 147.417969 192.03125 128.125 183.117188 126.304688 182.097656 C 124.53125 181.078125 124.488281 181.078125 137.527344 185.824219 Z M 146.445312 183.160156 C 150.035156 184.136719 151.855469 184.804688 151.855469 185.203125 C 151.855469 186.089844 151.632812 186.042969 145.113281 183.605469 C 138.546875 181.121094 138.636719 181.078125 146.445312 183.160156 Z M 163.609375 181.832031 C 163.742188 182.054688 163.652344 182.273438 163.433594 182.273438 C 163.164062 182.273438 162.945312 182.054688 162.945312 181.832031 C 162.945312 181.566406 163.03125 181.386719 163.121094 181.386719 C 163.253906 181.386719 163.476562 181.566406 163.609375 181.832031 Z M 168.621094 183.027344 C 168.710938 183.382812 168.398438 183.605469 167.867188 183.605469 C 167.335938 183.605469 166.9375 183.339844 166.9375 182.894531 C 166.9375 182.097656 168.3125 182.230469 168.621094 183.027344 Z M 174.210938 183.429688 C 174.609375 183.5625 174.921875 184.09375 174.921875 184.582031 C 174.921875 185.289062 174.699219 185.425781 173.945312 185.203125 C 173.367188 185.070312 172.792969 184.9375 172.613281 184.9375 C 172.390625 184.9375 172.257812 184.535156 172.257812 184.050781 C 172.257812 183.160156 172.925781 182.941406 174.210938 183.429688 Z M 116.058594 199.796875 L 134.511719 215.277344 L 133.535156 217.050781 C 133.003906 218.027344 132.339844 218.867188 132.117188 218.957031 C 131.851562 219.046875 123.777344 211.195312 114.152344 201.523438 C 104.527344 191.855469 96.851562 184.003906 97.121094 184.09375 C 97.386719 184.183594 105.902344 191.234375 116.058594 199.796875 Z M 181.882812 184.847656 C 182.152344 185.023438 182.550781 185.734375 182.726562 186.445312 C 182.992188 187.554688 182.949219 187.6875 182.285156 187.464844 C 181.839844 187.285156 181.261719 187.152344 180.996094 187.152344 C 180.15625 187.152344 179.488281 186.53125 179.179688 185.46875 C 178.914062 184.625 179 184.492188 180.109375 184.492188 C 180.777344 184.492188 181.574219 184.667969 181.882812 184.847656 Z M 129.808594 223.613281 C 129.1875 224.769531 128.523438 225.742188 128.390625 225.699219 C 128.125 225.699219 97.164062 188.839844 95.125 186.132812 C 94.546875 185.335938 102.351562 193.007812 112.511719 203.078125 L 130.964844 221.484375 Z M 191.464844 186.664062 C 191.644531 186.84375 191.910156 187.730469 192.085938 188.617188 L 192.351562 190.257812 L 190.222656 189.636719 C 187.738281 188.882812 187.871094 188.972656 187.519531 187.199219 L 187.207031 185.734375 L 189.160156 186.042969 C 190.222656 186.222656 191.289062 186.488281 191.464844 186.664062 Z M 158.773438 188.351562 C 158.285156 188.839844 158.019531 188.175781 158.375 187.332031 C 158.6875 186.53125 158.730469 186.53125 158.863281 187.285156 C 158.953125 187.730469 158.90625 188.21875 158.773438 188.351562 Z M 111.003906 208.222656 L 127.371094 227.738281 L 126.261719 229.734375 C 125.640625 230.84375 125.019531 231.863281 124.84375 232.042969 C 124.707031 232.21875 118.675781 223.925781 111.492188 213.632812 C 94.546875 189.460938 93.039062 187.242188 93.882812 188.039062 C 94.28125 188.394531 101.953125 197.488281 111.003906 208.222656 Z M 162.988281 188.175781 C 162.945312 188.351562 162.945312 188.796875 162.945312 189.148438 C 162.945312 189.503906 162.632812 189.816406 162.277344 189.816406 C 161.613281 189.816406 161.347656 188.441406 161.925781 187.863281 C 162.277344 187.507812 163.03125 187.730469 162.988281 188.175781 Z M 168.621094 190.65625 C 168.753906 192.078125 168.355469 192.34375 166.980469 191.632812 C 166.402344 191.324219 166.269531 190.835938 166.402344 189.859375 C 166.535156 188.75 166.714844 188.617188 167.558594 188.882812 C 168.179688 189.148438 168.53125 189.683594 168.621094 190.65625 Z M 108.917969 212.613281 L 123.820312 233.90625 L 122.535156 236.167969 C 121.824219 237.367188 121.117188 238.429688 120.9375 238.472656 C 120.628906 238.605469 98.359375 200.503906 93.394531 191.410156 C 91.308594 187.554688 92.019531 188.574219 108.917969 212.613281 Z M 174.789062 190.703125 C 175.273438 190.703125 176.074219 194.117188 175.675781 194.515625 C 175.542969 194.648438 174.742188 194.429688 173.855469 194.074219 C 172.4375 193.496094 172.257812 193.230469 172.257812 191.765625 C 172.257812 190.304688 172.347656 190.171875 173.277344 190.4375 C 173.8125 190.570312 174.476562 190.703125 174.789062 190.703125 Z M 151.457031 192.785156 C 150.921875 193.675781 150.835938 193.40625 151.234375 192.253906 C 151.410156 191.855469 151.632812 191.632812 151.722656 191.765625 C 151.855469 191.855469 151.722656 192.34375 151.457031 192.785156 Z M 154.292969 193.230469 C 153.941406 194.605469 153.71875 194.960938 153.40625 194.605469 C 153.007812 194.207031 153.671875 192.03125 154.160156 192.03125 C 154.429688 192.03125 154.472656 192.519531 154.292969 193.230469 Z M 183.96875 193.761719 C 184.546875 195.847656 184.679688 197.800781 184.28125 197.800781 C 184.011719 197.800781 183.039062 197.488281 182.0625 197.089844 C 180.289062 196.378906 179.800781 195.582031 179.800781 193.320312 C 179.800781 192.167969 179.84375 192.167969 181.796875 192.609375 C 182.949219 192.875 183.835938 193.363281 183.96875 193.761719 Z M 157.800781 193.71875 C 157.753906 194.027344 157.710938 194.738281 157.710938 195.359375 C 157.621094 196.601562 156.289062 196.914062 156.289062 195.671875 C 156.289062 194.25 156.867188 192.875 157.355469 193.054688 C 157.621094 193.140625 157.84375 193.453125 157.800781 193.71875 Z M 162.5 196.734375 C 162.5 198.6875 162.277344 198.910156 160.992188 198.421875 C 160.28125 198.152344 160.105469 196.957031 160.550781 195.316406 C 160.726562 194.648438 161.035156 194.429688 161.65625 194.5625 C 162.324219 194.738281 162.5 195.183594 162.5 196.734375 Z M 147.417969 196.777344 C 147.332031 197.753906 145.734375 200.105469 145.46875 199.617188 C 145.113281 199.085938 146.488281 196.46875 147.066406 196.46875 C 147.242188 196.46875 147.417969 196.601562 147.417969 196.777344 Z M 167.867188 196.914062 C 168.53125 197.265625 168.710938 197.886719 168.710938 199.574219 C 168.710938 200.816406 168.621094 201.792969 168.488281 201.792969 C 168.3125 201.792969 167.644531 201.480469 166.9375 201.125 C 165.78125 200.503906 165.605469 200.195312 165.605469 198.464844 C 165.605469 196.335938 166.09375 195.980469 167.867188 196.914062 Z M 148.972656 199.796875 C 148.527344 200.992188 148.128906 201.347656 147.820312 201.039062 C 147.507812 200.726562 147.597656 200.0625 148.128906 198.953125 C 149.148438 196.824219 149.902344 197.578125 148.972656 199.796875 Z M 152.476562 199.042969 C 152.699219 199.441406 151.765625 203.121094 151.410156 203.121094 C 151.277344 203.121094 150.921875 202.945312 150.65625 202.765625 C 150.214844 202.5 150.257812 202.011719 150.835938 200.550781 C 151.5 198.773438 151.988281 198.289062 152.476562 199.042969 Z M 174.609375 199.351562 C 176.03125 199.929688 176.164062 200.148438 176.472656 202.457031 C 176.605469 203.832031 176.648438 205.074219 176.515625 205.25 C 176.339844 205.382812 175.320312 205.074219 174.253906 204.542969 L 172.257812 203.566406 L 172.257812 201.125 C 172.257812 199.796875 172.4375 198.6875 172.660156 198.6875 C 172.878906 198.6875 173.722656 198.996094 174.609375 199.351562 Z M 156.15625 200.816406 C 156.511719 201.039062 156.558594 201.703125 156.289062 203.121094 C 156.070312 204.230469 155.890625 205.25 155.847656 205.472656 C 155.847656 205.652344 155.449219 205.5625 154.914062 205.25 C 154.160156 204.761719 154.074219 204.410156 154.292969 202.945312 C 154.648438 200.460938 155.003906 200.0625 156.15625 200.816406 Z M 161.613281 205.785156 C 161.613281 207.160156 161.480469 208.402344 161.347656 208.535156 C 161.214844 208.710938 160.503906 208.488281 159.792969 208.089844 C 158.597656 207.378906 158.507812 207.203125 158.730469 205.5625 C 159.21875 202.324219 159.308594 202.234375 160.550781 202.765625 C 161.480469 203.210938 161.613281 203.519531 161.613281 205.785156 Z M 144.316406 203.519531 C 144.269531 203.65625 143.828125 204.628906 143.292969 205.652344 C 142.539062 207.113281 142.183594 207.425781 141.652344 207.113281 C 141.078125 206.757812 141.121094 206.449219 142.050781 204.71875 C 142.71875 203.433594 143.292969 202.8125 143.695312 202.988281 C 144.046875 203.121094 144.316406 203.34375 144.316406 203.519531 Z M 146.710938 204.851562 C 147.152344 205.515625 145.601562 209.332031 144.933594 209.332031 C 143.828125 209.332031 143.78125 208.179688 144.757812 206.269531 C 145.644531 204.496094 146.222656 204.054688 146.710938 204.851562 Z M 168.710938 209.777344 C 168.710938 211.503906 168.621094 212.878906 168.445312 212.878906 C 168.3125 212.878906 167.425781 212.4375 166.492188 211.859375 C 164.808594 210.929688 164.71875 210.796875 164.71875 208.578125 C 164.71875 204.984375 164.894531 204.761719 166.980469 205.785156 L 168.710938 206.671875 Z M 150.035156 206.847656 C 150.300781 207.160156 150.4375 207.734375 150.347656 208.046875 C 150.214844 208.402344 149.902344 209.507812 149.636719 210.53125 C 149.148438 212.394531 149.148438 212.4375 148.085938 211.726562 C 146.976562 211.015625 146.976562 211.105469 148.527344 206.757812 C 148.792969 206.050781 149.414062 206.09375 150.035156 206.847656 Z M 154.960938 210.398438 C 154.914062 211.683594 154.25 215.097656 153.941406 215.363281 C 153.585938 215.71875 151.410156 214.210938 151.410156 213.589844 C 151.410156 213.28125 151.722656 211.992188 152.078125 210.75 C 152.742188 208.578125 152.785156 208.488281 153.851562 208.976562 C 154.515625 209.289062 154.960938 209.820312 154.960938 210.398438 Z M 140.277344 210.398438 C 140.675781 210.882812 140.589844 211.460938 139.789062 213.058594 C 138.859375 214.964844 138.769531 215.054688 138.015625 214.34375 C 136.996094 213.457031 136.996094 213.28125 138.148438 211.371094 C 139.167969 209.640625 139.523438 209.464844 140.277344 210.398438 Z M 143.871094 213.324219 C 143.871094 214.253906 142.496094 217.757812 142.097656 217.757812 C 141.917969 217.757812 141.429688 217.359375 140.988281 216.871094 C 140.1875 215.984375 140.1875 215.898438 141.210938 213.8125 C 142.097656 211.859375 142.320312 211.683594 143.027344 212.125 C 143.515625 212.4375 143.871094 212.925781 143.871094 213.324219 Z M 159.839844 212.394531 C 160.726562 213.101562 160.902344 213.546875 160.816406 215.410156 C 160.726562 216.5625 160.59375 218.070312 160.460938 218.78125 L 160.195312 219.976562 L 158.863281 219.222656 C 158.152344 218.78125 157.355469 218.203125 157.132812 217.894531 C 156.558594 217.226562 157.53125 211.550781 158.242188 211.550781 C 158.507812 211.550781 159.21875 211.949219 159.839844 212.394531 Z M 147.464844 215.410156 C 148.128906 215.984375 148.128906 216.25 147.507812 218.648438 C 147.109375 220.109375 146.664062 221.308594 146.488281 221.308594 C 146.355469 221.308594 145.691406 220.910156 145.070312 220.421875 L 143.914062 219.488281 L 144.847656 216.871094 C 145.824219 214.253906 146 214.167969 147.464844 215.410156 Z M 136.816406 217.140625 C 137.527344 217.804688 137.527344 217.9375 136.640625 219.976562 C 135.578125 222.417969 135.089844 222.640625 133.847656 221.265625 C 133.046875 220.375 133.046875 220.332031 134.066406 218.378906 C 135.222656 216.25 135.621094 216.074219 136.816406 217.140625 Z M 152.078125 218.46875 C 153.320312 219.269531 153.453125 220.554688 152.609375 224.101562 L 152.078125 226.277344 L 150.4375 224.769531 L 148.75 223.304688 L 149.460938 220.511719 C 149.859375 219 150.390625 217.757812 150.613281 217.757812 C 150.835938 217.757812 151.5 218.070312 152.078125 218.46875 Z M 140.277344 220.15625 L 141.253906 221.175781 L 140.324219 223.570312 C 139.789062 224.902344 139.257812 226.054688 139.167969 226.144531 C 138.859375 226.453125 136.773438 224.324219 136.773438 223.703125 C 136.773438 222.949219 138.636719 219.089844 138.992188 219.089844 C 139.167969 219.089844 139.703125 219.578125 140.277344 220.15625 Z M 133.226562 223.746094 L 134.246094 224.8125 L 133.226562 227.296875 C 132.691406 228.628906 132.070312 229.734375 131.851562 229.734375 C 131.671875 229.734375 130.964844 229.070312 130.34375 228.226562 L 129.1875 226.71875 L 130.429688 224.679688 C 131.097656 223.570312 131.761719 222.640625 131.9375 222.640625 C 132.070312 222.640625 132.648438 223.125 133.226562 223.746094 Z M 144.492188 223.660156 L 145.777344 224.722656 L 144.980469 227.871094 C 144.582031 229.648438 144.046875 231.066406 143.871094 231.066406 C 143.695312 231.066406 142.894531 230.355469 142.183594 229.515625 L 140.808594 228.007812 L 141.785156 225.300781 C 142.320312 223.835938 142.851562 222.640625 142.984375 222.640625 C 143.117188 222.640625 143.78125 223.125 144.492188 223.660156 Z M 137.21875 232 L 136.152344 235.191406 L 134.6875 233.460938 C 133.890625 232.484375 133.226562 231.511719 133.226562 231.289062 C 133.226562 231.023438 133.757812 229.78125 134.378906 228.449219 L 135.488281 226.011719 L 136.90625 227.429688 L 138.328125 228.847656 Z M 129.855469 234.527344 C 129.234375 235.902344 128.65625 237.097656 128.523438 237.230469 C 128.214844 237.542969 126.171875 235.015625 125.90625 233.949219 C 125.730469 233.375 126.128906 232.175781 126.839844 230.84375 L 128.078125 228.714844 L 129.5 230.355469 L 130.964844 232.042969 Z M 129.855469 234.527344 " fill-opacity="1" fill-rule="nonzero"/></g><g fill="#ffffff" fill-opacity="1"><g transform="translate(247.089963, 159.274353)"><g><path d="M 1.1875 0 L 39.6875 -85.46875 L 69.203125 -85.46875 L 107.703125 0 L 86.90625 0 L 78.765625 -18.046875 L 30.125 -18.046875 L 22 0 Z M 37.046875 -33.59375 L 71.84375 -33.59375 L 55.21875 -70.515625 L 53.671875 -70.515625 Z M 37.046875 -33.59375 "/></g></g></g><g fill="#ffffff" fill-opacity="1"><g transform="translate(355.985593, 159.274353)"><g><path d="M 8.359375 0 L 8.359375 -85.46875 L 22.46875 -85.46875 L 60.71875 -85.578125 C 76.175781 -85.578125 88.164062 -81.953125 96.6875 -74.703125 C 105.21875 -67.453125 109.484375 -56.816406 109.484375 -42.796875 C 109.484375 -28.765625 105.21875 -18.125 96.6875 -10.875 C 88.164062 -3.625 76.175781 0 60.71875 0 Z M 59.40625 -70.046875 L 27.484375 -70.046875 L 27.484375 -15.53125 L 59.40625 -15.53125 C 69.445312 -15.53125 77.054688 -17.722656 82.234375 -22.109375 C 87.410156 -26.492188 90 -33.390625 90 -42.796875 C 90 -52.273438 87.410156 -59.1875 82.234375 -63.53125 C 77.054688 -67.875 69.445312 -70.046875 59.40625 -70.046875 Z M 59.40625 -70.046875 "/></g></g></g><g fill="#ffffff" fill-opacity="1"><g transform="translate(469.064938, 159.274353)"><g><path d="M 1.1875 0 L 39.6875 -85.46875 L 69.203125 -85.46875 L 107.703125 0 L 86.90625 0 L 78.765625 -18.046875 L 30.125 -18.046875 L 22 0 Z M 37.046875 -33.59375 L 71.84375 -33.59375 L 55.21875 -70.515625 L 53.671875 -70.515625 Z M 37.046875 -33.59375 "/></g></g></g><g fill="#ffffff" fill-opacity="1"><g transform="translate(577.960569, 159.274353)"><g><path d="M 8.359375 0 L 8.359375 -85.46875 L 79.96875 -85.46875 C 88.8125 -85.46875 95.679688 -83.234375 100.578125 -78.765625 C 105.484375 -74.304688 107.9375 -67.535156 107.9375 -58.453125 C 107.9375 -49.367188 105.484375 -42.59375 100.578125 -38.125 C 95.679688 -33.664062 88.8125 -31.4375 79.96875 -31.4375 L 27.484375 -31.4375 L 27.484375 0 Z M 77.6875 -69.921875 L 27.484375 -69.921875 L 27.484375 -47.09375 L 77.6875 -46.96875 C 81.195312 -46.96875 83.890625 -47.84375 85.765625 -49.59375 C 87.640625 -51.351562 88.578125 -54.304688 88.578125 -58.453125 C 88.578125 -62.671875 87.640625 -65.632812 85.765625 -67.34375 C 83.890625 -69.0625 81.195312 -69.921875 77.6875 -69.921875 Z M 77.6875 -69.921875 "/></g></g></g><g fill="#ffffff" fill-opacity="1"><g transform="translate(689.485946, 159.274353)"><g><path d="M 5.375 -42.1875 L 5.375 -85.46875 L 110.5625 -85.46875 L 110.5625 -42.1875 L 91.203125 -42.1875 L 91.203125 -69.921875 L 65.140625 -69.921875 L 65.140625 0 L 46.015625 0 L 46.015625 -69.921875 L 24.75 -69.921875 L 24.75 -42.1875 Z M 5.375 -42.1875 "/></g></g></g></svg>