<svg xmlns="http://www.w3.org/2000/svg" xml:space="preserve" viewBox="200 200 399.9 400"><path d="m504.1 371.7 88.7 88.6c-4.8 15.3-11.4 29.8-19.5 43.4L472.7 403.1v-75.8h-75.8L296.3 226.7c13.5-8.1 28-14.7 43.4-19.5l88.6 88.7V200c15.4 2.2 30.3 6.1 44.4 11.5v84.4l53.5-53.5c11.6 9.3 22.1 19.8 31.4 31.4l-53.5 53.5h84.3c5.4 14.1 9.4 29 11.5 44.4z" style="fill:#26d0ce"/><path d="M472.7 327.3v261.2c-14.1 5.4-29 9.4-44.4 11.5V403.1L273.8 557.6c-11.6-9.3-22.1-19.8-31.4-31.4l154.5-154.5H200c2.2-15.4 6.1-30.3 11.5-44.4z" style="fill:#003645"/></svg>